<?xml version="1.0" encoding="UTF-8"?><svg xmlns="http://www.w3.org/2000/svg" xmlns:xlink="http://www.w3.org/1999/xlink" fill-opacity="1" color-rendering="auto" color-interpolation="auto" text-rendering="auto" stroke="black" stroke-linecap="square" width="1261" stroke-miterlimit="10" shape-rendering="auto" stroke-opacity="1" fill="black" stroke-dasharray="none" font-weight="normal" stroke-width="1" height="429" font-family="'Dialog'" font-style="normal" stroke-linejoin="miter" font-size="12px" stroke-dashoffset="0" image-rendering="auto">
  <!--Generated by ySVG 2.5-->
  <defs id="genericDefs"/>
  <g>
    <defs id="defs1">
      <linearGradient x1="595.9" gradientUnits="userSpaceOnUse" x2="765.9" y1="70" y2="155" id="linearGradient1" spreadMethod="reflect">
        <stop stop-opacity="1" stop-color="rgb(232,238,247)" offset="0%"/>
        <stop stop-opacity="1" stop-color="rgb(183,201,227)" offset="100%"/>
      </linearGradient>
      <linearGradient x1="392.2667" gradientUnits="userSpaceOnUse" x2="558.2667" y1="186" y2="269" id="linearGradient2" spreadMethod="reflect">
        <stop stop-opacity="1" stop-color="rgb(232,238,247)" offset="0%"/>
        <stop stop-opacity="1" stop-color="rgb(183,201,227)" offset="100%"/>
      </linearGradient>
      <linearGradient x1="152.1333" gradientUnits="userSpaceOnUse" x2="380.1333" y1="300" y2="427" id="linearGradient3" spreadMethod="reflect">
        <stop stop-opacity="1" stop-color="rgb(232,238,247)" offset="0%"/>
        <stop stop-opacity="1" stop-color="rgb(183,201,227)" offset="100%"/>
      </linearGradient>
      <linearGradient x1="956.1667" gradientUnits="userSpaceOnUse" x2="1126.1666" y1="185" y2="270" id="linearGradient4" spreadMethod="reflect">
        <stop stop-opacity="1" stop-color="rgb(232,238,247)" offset="0%"/>
        <stop stop-opacity="1" stop-color="rgb(183,201,227)" offset="100%"/>
      </linearGradient>
      <linearGradient x1="776.0333" gradientUnits="userSpaceOnUse" x2="946.0333" y1="321" y2="406" id="linearGradient5" spreadMethod="reflect">
        <stop stop-opacity="1" stop-color="rgb(232,238,247)" offset="0%"/>
        <stop stop-opacity="1" stop-color="rgb(183,201,227)" offset="100%"/>
      </linearGradient>
      <linearGradient x1="606.4" gradientUnits="userSpaceOnUse" x2="755.4" y1="210.5" y2="244.5" id="linearGradient6" spreadMethod="reflect">
        <stop stop-opacity="1" stop-color="rgb(232,238,247)" offset="0%"/>
        <stop stop-opacity="1" stop-color="rgb(183,201,227)" offset="100%"/>
      </linearGradient>
      <linearGradient x1="10" gradientUnits="userSpaceOnUse" x2="104" y1="353.5" y2="373.5" id="linearGradient7" spreadMethod="reflect">
        <stop stop-opacity="1" stop-color="rgb(232,238,247)" offset="0%"/>
        <stop stop-opacity="1" stop-color="rgb(183,201,227)" offset="100%"/>
      </linearGradient>
      <linearGradient x1="428.2667" gradientUnits="userSpaceOnUse" x2="522.2667" y1="353.5" y2="373.5" id="linearGradient8" spreadMethod="reflect">
        <stop stop-opacity="1" stop-color="rgb(232,238,247)" offset="0%"/>
        <stop stop-opacity="1" stop-color="rgb(183,201,227)" offset="100%"/>
      </linearGradient>
      <linearGradient x1="1174.3" gradientUnits="userSpaceOnUse" x2="1268.3" y1="211.5" y2="243.5" id="linearGradient9" spreadMethod="reflect">
        <stop stop-opacity="1" stop-color="rgb(232,238,247)" offset="0%"/>
        <stop stop-opacity="1" stop-color="rgb(183,201,227)" offset="100%"/>
      </linearGradient>
      <linearGradient x1="994.1667" gradientUnits="userSpaceOnUse" x2="1088.1666" y1="347.5" y2="379.5" id="linearGradient10" spreadMethod="reflect">
        <stop stop-opacity="1" stop-color="rgb(232,238,247)" offset="0%"/>
        <stop stop-opacity="1" stop-color="rgb(183,201,227)" offset="100%"/>
      </linearGradient>
      <linearGradient x1="633.9" gradientUnits="userSpaceOnUse" x2="727.9" y1="353.5" y2="373.5" id="linearGradient11" spreadMethod="reflect">
        <stop stop-opacity="1" stop-color="rgb(232,238,247)" offset="0%"/>
        <stop stop-opacity="1" stop-color="rgb(183,201,227)" offset="100%"/>
      </linearGradient>
      <linearGradient x1="640.9" gradientUnits="userSpaceOnUse" x2="720.9" y1="0" y2="40" id="linearGradient12" spreadMethod="reflect">
        <stop stop-opacity="1" stop-color="rgb(232,238,247)" offset="0%"/>
        <stop stop-opacity="1" stop-color="rgb(183,201,227)" offset="100%"/>
      </linearGradient>
      <clipPath clipPathUnits="userSpaceOnUse" id="clipPath1">
        <path d="M0 0 L1261 0 L1261 429 L0 429 L0 0 Z"/>
      </clipPath>
      <clipPath clipPathUnits="userSpaceOnUse" id="clipPath2">
        <path d="M9 -1 L1270 -1 L1270 428 L9 428 L9 -1 Z"/>
      </clipPath>
      <clipPath clipPathUnits="userSpaceOnUse" id="clipPath3">
        <path d="M597.9 104.4336 L763.9 104.4336 L763.9 120.5664 L597.9 120.5664 L597.9 104.4336 Z"/>
      </clipPath>
      <clipPath clipPathUnits="userSpaceOnUse" id="clipPath4">
        <path d="M958.1667 212.3672 L1124.1666 212.3672 L1124.1666 242.6328 L958.1667 242.6328 L958.1667 212.3672 Z"/>
      </clipPath>
      <clipPath clipPathUnits="userSpaceOnUse" id="clipPath5">
        <path d="M778.0333 355.4336 L944.0333 355.4336 L944.0333 371.5664 L778.0333 371.5664 L778.0333 355.4336 Z"/>
      </clipPath>
      <clipPath clipPathUnits="userSpaceOnUse" id="clipPath6">
        <path d="M0 0 L0 18 L81 18 L81 0 Z"/>
      </clipPath>
      <script type="text/ecmascript"><![CDATA[      var SVGDocument = null;
      var SVGRoot = null;
      var TrueCoords = null;
      var lastElement = null;
      var initialized = null;
      var tipGroup;
      function Init(evt)
      {
         SVGDocument = evt.target.ownerDocument;
         SVGRoot = SVGDocument.documentElement;
         TrueCoords = SVGRoot.createSVGPoint();
         initialized = evt;
      };
      function GetTrueCoords(evt)
      {
         var newScale = SVGRoot.currentScale;
         var translation = SVGRoot.currentTranslate;
         TrueCoords.x = (evt.clientX - translation.x)/newScale;
         TrueCoords.y = (evt.clientY - translation.y)/newScale;
      };
      function HideTooltip( evt )
      {
         if(initialized == null) {
           Init(evt);
         }
         if(tipGroup != null) {
           tipGroup.setAttributeNS(null, 'visibility', 'hidden');
         }
      };
      function ShowTooltip( evt )
      {
         if(initialized == null) {
           Init(evt);
         }
         GetTrueCoords( evt );
         var tipScale = 1/SVGRoot.currentScale;
         var targetElement = evt.currentTarget;
         if ( lastElement != targetElement )
         {
            var targetId = targetElement.getAttributeNS(null, 'id');
            var tipId = 'tooltip.' + targetId;
            tipGroup = SVGDocument.getElementById(tipId);
            var xPos = TrueCoords.x + (10 * tipScale);
            var yPos = TrueCoords.y + (10 * tipScale);
            tipGroup.setAttributeNS(null, 'transform', 'translate(' + xPos + ',' + yPos + ') scale(' + tipScale + ')');
            tipGroup.setAttributeNS(null, 'visibility', 'visible');
         }
      };
]]></script>
    </defs>
    <g fill="white" text-rendering="geometricPrecision" shape-rendering="geometricPrecision" transform="translate(-9,1)" stroke="white">
      <rect x="9" width="1261" height="429" y="-1" clip-path="url(#clipPath2)" stroke="none"/>
    </g>
    <g id="y.node.0">
      <g fill="url(#linearGradient1)" text-rendering="geometricPrecision" shape-rendering="geometricPrecision" transform="matrix(1,0,0,1,-9,1)" stroke="url(#linearGradient1)">
        <path d="M680.9 70 L765.9 112.5 L680.9 155 L595.9 112.5 Z" stroke="none"/>
      </g>
      <g text-rendering="geometricPrecision" stroke-miterlimit="1.45" shape-rendering="geometricPrecision" transform="matrix(1,0,0,1,-9,1)" stroke-linecap="butt">
        <path fill="none" d="M680.9 70 L765.9 112.5 L680.9 155 L595.9 112.5 Z"/>
      </g>
      <g>
        <g text-rendering="geometricPrecision" shape-rendering="geometricPrecision" transform="matrix(1,0,0,1,-9,1)">
          <path d="M634.7311 116.1816 Q633.442 116.1816 632.5924 115.2266 Q631.7428 114.2715 631.7428 112.8184 Q631.7428 111.2656 632.5836 110.3984 Q633.4244 109.5312 634.9303 109.5312 Q635.6744 109.5312 636.5944 109.7363 L636.5944 110.7031 Q635.6158 110.416 635.0006 110.416 Q634.1158 110.416 633.5797 111.0811 Q633.0436 111.7461 633.0436 112.8535 Q633.0436 113.9258 633.5944 114.5879 Q634.1451 115.25 635.0358 115.25 Q635.8268 115.25 636.6647 114.8457 L636.6647 115.8418 Q635.5455 116.1816 634.7311 116.1816 ZM641.6744 115.2266 Q640.6373 116.1816 639.6764 116.1816 Q638.8854 116.1816 638.3639 115.6865 Q637.8424 115.1914 637.8424 114.4355 Q637.8424 113.3926 638.7184 112.833 Q639.5944 112.2734 641.2291 112.2734 L641.5045 112.2734 L641.5045 111.5059 Q641.5045 110.3984 640.3678 110.3984 Q639.4537 110.3984 638.3932 110.9609 L638.3932 110.0059 Q639.5592 109.5312 640.5787 109.5312 Q641.6451 109.5312 642.152 110.0117 Q642.6588 110.4922 642.6588 111.5059 L642.6588 114.3887 Q642.6588 115.3789 643.2682 115.3789 Q643.3444 115.3789 643.4908 115.3555 L643.5729 115.9941 Q643.1803 116.1816 642.7057 116.1816 Q641.8971 116.1816 641.6744 115.2266 ZM641.5045 114.5996 L641.5045 112.9531 L641.1178 112.9414 Q640.1686 112.9414 639.5826 113.3018 Q638.9967 113.6621 638.9967 114.248 Q638.9967 114.6641 639.2897 114.9512 Q639.5826 115.2383 640.0045 115.2383 Q640.7252 115.2383 641.5045 114.5996 ZM645.0201 116.0352 L645.0201 109.6719 L646.1744 109.6719 L646.1744 110.8672 Q646.86 109.5312 648.1666 109.5312 Q648.3424 109.5312 648.5358 109.5605 L648.5358 110.6387 Q648.2369 110.5391 648.0084 110.5391 Q646.9127 110.5391 646.1744 111.8398 L646.1744 116.0352 ZM654.5944 115.8301 Q653.4342 116.1816 652.608 116.1816 Q651.2018 116.1816 650.3141 115.2471 Q649.4264 114.3125 649.4264 112.8242 Q649.4264 111.377 650.2086 110.4512 Q650.9908 109.5254 652.2096 109.5254 Q653.3639 109.5254 653.9938 110.3457 Q654.6237 111.166 654.6237 112.6777 L654.6178 113.0352 L650.6041 113.0352 Q650.8561 115.3027 652.8248 115.3027 Q653.5455 115.3027 654.5944 114.916 ZM650.6569 112.168 L653.4635 112.168 Q653.4635 110.3926 652.1393 110.3926 Q650.8092 110.3926 650.6569 112.168 ZM663.694 115.2266 Q662.6569 116.1816 661.6959 116.1816 Q660.9049 116.1816 660.3834 115.6865 Q659.8619 115.1914 659.8619 114.4355 Q659.8619 113.3926 660.7379 112.833 Q661.6139 112.2734 663.2487 112.2734 L663.524 112.2734 L663.524 111.5059 Q663.524 110.3984 662.3873 110.3984 Q661.4733 110.3984 660.4127 110.9609 L660.4127 110.0059 Q661.5787 109.5312 662.5983 109.5312 Q663.6647 109.5312 664.1715 110.0117 Q664.6783 110.4922 664.6783 111.5059 L664.6783 114.3887 Q664.6783 115.3789 665.2877 115.3789 Q665.3639 115.3789 665.5104 115.3555 L665.5924 115.9941 Q665.1998 116.1816 664.7252 116.1816 Q663.9166 116.1816 663.694 115.2266 ZM663.524 114.5996 L663.524 112.9531 L663.1373 112.9414 Q662.1881 112.9414 661.6022 113.3018 Q661.0162 113.6621 661.0162 114.248 Q661.0162 114.6641 661.3092 114.9512 Q661.6022 115.2383 662.024 115.2383 Q662.7448 115.2383 663.524 114.5996 ZM667.0397 116.1055 L667.0397 106.7832 L668.194 106.7832 L668.194 110.8672 Q668.903 109.5312 670.3209 109.5312 Q671.4694 109.5312 672.1285 110.3691 Q672.7877 111.207 672.7877 112.6602 Q672.7877 114.2422 672.0406 115.2119 Q671.2936 116.1816 670.0748 116.1816 Q668.944 116.1816 668.194 115.3145 L668.0533 116.1055 ZM668.194 114.5176 Q669.0846 115.3145 669.8932 115.3145 Q671.5573 115.3145 671.5573 112.7773 Q671.5573 110.5391 670.0807 110.5391 Q669.1139 110.5391 668.194 111.5879 ZM677.0826 116.1816 Q675.7174 116.1816 674.903 115.2764 Q674.0885 114.3711 674.0885 112.8535 Q674.0885 111.3184 674.9059 110.4248 Q675.7233 109.5312 677.1237 109.5312 Q678.524 109.5312 679.3414 110.4248 Q680.1588 111.3184 680.1588 112.8418 Q680.1588 114.4004 679.3385 115.291 Q678.5182 116.1816 677.0826 116.1816 ZM677.1002 115.3145 Q678.9342 115.3145 678.9342 112.8418 Q678.9342 110.3984 677.1237 110.3984 Q675.319 110.3984 675.319 112.8535 Q675.319 115.3145 677.1002 115.3145 ZM685.942 116.0352 L685.942 114.8398 Q685.0221 116.1816 683.7096 116.1816 Q682.8776 116.1816 682.3854 115.6572 Q681.8932 115.1328 681.8932 114.2422 L681.8932 109.6719 L683.0475 109.6719 L683.0475 113.8672 Q683.0475 114.582 683.2555 114.8838 Q683.4635 115.1855 683.9498 115.1855 Q685.0045 115.1855 685.942 113.7969 L685.942 109.6719 L687.0963 109.6719 L687.0963 116.0352 ZM691.3209 116.1816 Q690.442 116.1816 689.9498 115.6777 Q689.4576 115.1738 689.4576 114.2773 L689.4576 110.5391 L688.6608 110.5391 L688.6608 109.6719 L689.4576 109.6719 L689.4576 108.5176 L690.6119 108.4062 L690.6119 109.6719 L692.276 109.6719 L692.276 110.5391 L690.6119 110.5391 L690.6119 114.0664 Q690.6119 115.3145 691.6901 115.3145 Q691.9186 115.3145 692.2467 115.2383 L692.2467 116.0352 Q691.7135 116.1816 691.3209 116.1816 ZM697.6959 118.3496 L697.6959 109.6719 L698.8502 109.6719 L698.8502 110.8672 Q699.5592 109.5312 700.9772 109.5312 Q702.1256 109.5312 702.7848 110.3691 Q703.444 111.207 703.444 112.6602 Q703.444 114.2422 702.6969 115.2119 Q701.9498 116.1816 700.7311 116.1816 Q699.6002 116.1816 698.8502 115.3145 L698.8502 118.3496 ZM698.8502 114.5176 Q699.7408 115.3145 700.5494 115.3145 Q702.2135 115.3145 702.2135 112.7773 Q702.2135 110.5391 700.7369 110.5391 Q699.7701 110.5391 698.8502 111.5879 ZM705.2487 116.0352 L705.2487 109.6719 L706.403 109.6719 L706.403 116.0352 ZM705.2487 108.5176 L705.2487 107.3633 L706.403 107.3633 L706.403 108.5176 ZM710.6276 116.1816 Q709.7487 116.1816 709.2565 115.6777 Q708.7643 115.1738 708.7643 114.2773 L708.7643 110.5391 L707.9674 110.5391 L707.9674 109.6719 L708.7643 109.6719 L708.7643 108.5176 L709.9186 108.4062 L709.9186 109.6719 L711.5826 109.6719 L711.5826 110.5391 L709.9186 110.5391 L709.9186 114.0664 Q709.9186 115.3145 710.9967 115.3145 Q711.2252 115.3145 711.5533 115.2383 L711.5533 116.0352 Q711.0201 116.1816 710.6276 116.1816 ZM715.6901 116.1816 Q714.401 116.1816 713.5514 115.2266 Q712.7018 114.2715 712.7018 112.8184 Q712.7018 111.2656 713.5426 110.3984 Q714.3834 109.5312 715.8893 109.5312 Q716.6334 109.5312 717.5533 109.7363 L717.5533 110.7031 Q716.5748 110.416 715.9596 110.416 Q715.0748 110.416 714.5387 111.0811 Q714.0026 111.7461 714.0026 112.8535 Q714.0026 113.9258 714.5533 114.5879 Q715.1041 115.25 715.9948 115.25 Q716.7858 115.25 717.6237 114.8457 L717.6237 115.8418 Q716.5045 116.1816 715.6901 116.1816 ZM719.3522 116.0352 L719.3522 106.7832 L720.5065 106.7832 L720.5065 110.8672 Q721.4205 109.5312 722.7448 109.5312 Q723.5709 109.5312 724.0631 110.0557 Q724.5553 110.5801 724.5553 111.4648 L724.5553 116.0352 L723.401 116.0352 L723.401 111.8398 Q723.401 111.1309 723.193 110.8291 Q722.985 110.5273 722.5045 110.5273 Q721.444 110.5273 720.5065 111.916 L720.5065 116.0352 ZM727.11 116.0352 L727.11 114.8809 L728.2643 114.8809 L728.2643 116.0352 ZM727.11 113.7207 L727.11 113.4043 Q727.11 112.2852 727.9713 111.3008 L728.3405 110.873 Q729.2604 109.8184 729.2604 109.1445 Q729.2604 108.623 728.8561 108.3184 Q728.4518 108.0137 727.7662 108.0137 Q726.8698 108.0137 725.8619 108.4473 L725.8619 107.4688 Q726.9459 107.1406 727.8893 107.1406 Q729.0846 107.1406 729.7877 107.6768 Q730.4908 108.2129 730.4908 109.127 Q730.4908 109.6426 730.2887 110.0146 Q730.0865 110.3867 729.5123 110.9316 L729.149 111.2715 Q728.6041 111.7871 728.4342 112.1357 Q728.2643 112.4844 728.2643 113.0762 L728.2643 113.7207 Z" stroke="none" clip-path="url(#clipPath3)"/>
        </g>
      </g>
    </g>
    <g id="y.node.1">
      <g fill="url(#linearGradient2)" text-rendering="geometricPrecision" shape-rendering="geometricPrecision" transform="matrix(1,0,0,1,-9,1)" stroke="url(#linearGradient2)">
        <path d="M475.2667 186 L558.2667 227.5 L475.2667 269 L392.2667 227.5 Z" stroke="none"/>
      </g>
      <g text-rendering="geometricPrecision" stroke-miterlimit="1.45" shape-rendering="geometricPrecision" transform="matrix(1,0,0,1,-9,1)" stroke-linecap="butt">
        <path fill="none" d="M475.2667 186 L558.2667 227.5 L475.2667 269 L392.2667 227.5 Z"/>
      </g>
      <g>
        <g text-rendering="geometricPrecision" stroke-miterlimit="1.45" shape-rendering="geometricPrecision" font-family="sans-serif" transform="matrix(1,0,0,1,-9,1)" stroke-linecap="butt">
          <text x="427.8848" xml:space="preserve" y="232.0352" stroke="none">specific pitches?</text>
        </g>
      </g>
    </g>
    <g id="y.node.2">
      <g fill="url(#linearGradient3)" text-rendering="geometricPrecision" shape-rendering="geometricPrecision" transform="matrix(1,0,0,1,-9,1)" stroke="url(#linearGradient3)">
        <path d="M266.1333 300 L380.1333 363.5 L266.1333 427 L152.1333 363.5 Z" stroke="none"/>
      </g>
      <g text-rendering="geometricPrecision" stroke-miterlimit="1.45" shape-rendering="geometricPrecision" transform="matrix(1,0,0,1,-9,1)" stroke-linecap="butt">
        <path fill="none" d="M266.1333 300 L380.1333 363.5 L266.1333 427 L152.1333 363.5 Z"/>
      </g>
      <g>
        <g text-rendering="geometricPrecision" stroke-miterlimit="1.45" shape-rendering="geometricPrecision" font-family="sans-serif" transform="matrix(1,0,0,1,-9,1)" stroke-linecap="butt">
          <text x="204.3374" xml:space="preserve" y="368.0352" stroke="none">monophonic pitches?</text>
        </g>
      </g>
    </g>
    <g id="y.node.3">
      <g fill="url(#linearGradient4)" text-rendering="geometricPrecision" shape-rendering="geometricPrecision" transform="matrix(1,0,0,1,-9,1)" stroke="url(#linearGradient4)">
        <path d="M1041.1666 185 L1126.1666 227.5 L1041.1666 270 L956.1667 227.5 Z" stroke="none"/>
      </g>
      <g text-rendering="geometricPrecision" stroke-miterlimit="1.45" shape-rendering="geometricPrecision" transform="matrix(1,0,0,1,-9,1)" stroke-linecap="butt">
        <path fill="none" d="M1041.1666 185 L1126.1666 227.5 L1041.1666 270 L956.1667 227.5 Z"/>
      </g>
      <g>
        <g text-rendering="geometricPrecision" shape-rendering="geometricPrecision" transform="matrix(1,0,0,1,-9,1)">
          <path d="M984.0788 224.1152 Q982.7897 224.1152 981.9401 223.1602 Q981.0905 222.2051 981.0905 220.752 Q981.0905 219.1992 981.9313 218.332 Q982.7722 217.4648 984.278 217.4648 Q985.0222 217.4648 985.9421 217.6699 L985.9421 218.6367 Q984.9636 218.3496 984.3483 218.3496 Q983.4636 218.3496 982.9274 219.0146 Q982.3913 219.6797 982.3913 220.7871 Q982.3913 221.8594 982.9421 222.5215 Q983.4929 223.1836 984.3835 223.1836 Q985.1745 223.1836 986.0124 222.7793 L986.0124 223.7754 Q984.8932 224.1152 984.0788 224.1152 ZM991.0222 223.1602 Q989.985 224.1152 989.0241 224.1152 Q988.2331 224.1152 987.7116 223.6201 Q987.1901 223.125 987.1901 222.3691 Q987.1901 221.3262 988.0661 220.7666 Q988.9421 220.207 990.5768 220.207 L990.8522 220.207 L990.8522 219.4395 Q990.8522 218.332 989.7155 218.332 Q988.8015 218.332 987.7409 218.8945 L987.7409 217.9395 Q988.9069 217.4648 989.9265 217.4648 Q990.9929 217.4648 991.4997 217.9453 Q992.0065 218.4258 992.0065 219.4395 L992.0065 222.3223 Q992.0065 223.3125 992.6159 223.3125 Q992.6921 223.3125 992.8386 223.2891 L992.9206 223.9277 Q992.528 224.1152 992.0534 224.1152 Q991.2448 224.1152 991.0222 223.1602 ZM990.8522 222.5332 L990.8522 220.8867 L990.4655 220.875 Q989.5163 220.875 988.9304 221.2354 Q988.3444 221.5957 988.3444 222.1816 Q988.3444 222.5977 988.6374 222.8848 Q988.9304 223.1719 989.3522 223.1719 Q990.0729 223.1719 990.8522 222.5332 ZM994.3679 223.9688 L994.3679 217.6055 L995.5222 217.6055 L995.5222 218.8008 Q996.2077 217.4648 997.5143 217.4648 Q997.6901 217.4648 997.8835 217.4941 L997.8835 218.5723 Q997.5847 218.4727 997.3561 218.4727 Q996.2604 218.4727 995.5222 219.7734 L995.5222 223.9688 ZM1003.9421 223.7637 Q1002.7819 224.1152 1001.9557 224.1152 Q1000.5495 224.1152 999.6618 223.1807 Q998.7741 222.2461 998.7741 220.7578 Q998.7741 219.3105 999.5563 218.3848 Q1000.3386 217.459 1001.5573 217.459 Q1002.7116 217.459 1003.3415 218.2793 Q1003.9714 219.0996 1003.9714 220.6113 L1003.9655 220.9688 L999.9518 220.9688 Q1000.2038 223.2363 1002.1725 223.2363 Q1002.8932 223.2363 1003.9421 222.8496 ZM1000.0046 220.1016 L1002.8112 220.1016 Q1002.8112 218.3262 1001.487 218.3262 Q1000.1569 218.3262 1000.0046 220.1016 ZM1013.0417 223.1602 Q1012.0046 224.1152 1011.0436 224.1152 Q1010.2526 224.1152 1009.7311 223.6201 Q1009.2097 223.125 1009.2097 222.3691 Q1009.2097 221.3262 1010.0856 220.7666 Q1010.9616 220.207 1012.5964 220.207 L1012.8718 220.207 L1012.8718 219.4395 Q1012.8718 218.332 1011.735 218.332 Q1010.821 218.332 1009.7604 218.8945 L1009.7604 217.9395 Q1010.9265 217.4648 1011.946 217.4648 Q1013.0124 217.4648 1013.5192 217.9453 Q1014.0261 218.4258 1014.0261 219.4395 L1014.0261 222.3223 Q1014.0261 223.3125 1014.6354 223.3125 Q1014.7116 223.3125 1014.8581 223.2891 L1014.9401 223.9277 Q1014.5475 224.1152 1014.0729 224.1152 Q1013.2643 224.1152 1013.0417 223.1602 ZM1012.8718 222.5332 L1012.8718 220.8867 L1012.485 220.875 Q1011.5358 220.875 1010.9499 221.2354 Q1010.364 221.5957 1010.364 222.1816 Q1010.364 222.5977 1010.6569 222.8848 Q1010.9499 223.1719 1011.3718 223.1719 Q1012.0925 223.1719 1012.8718 222.5332 ZM1016.3874 224.0391 L1016.3874 214.7168 L1017.5417 214.7168 L1017.5417 218.8008 Q1018.2507 217.4648 1019.6686 217.4648 Q1020.8171 217.4648 1021.4763 218.3027 Q1022.1354 219.1406 1022.1354 220.5938 Q1022.1354 222.1758 1021.3884 223.1455 Q1020.6413 224.1152 1019.4225 224.1152 Q1018.2917 224.1152 1017.5417 223.248 L1017.4011 224.0391 ZM1017.5417 222.4512 Q1018.4323 223.248 1019.2409 223.248 Q1020.905 223.248 1020.905 220.7109 Q1020.905 218.4727 1019.4284 218.4727 Q1018.4616 218.4727 1017.5417 219.5215 ZM1026.4304 224.1152 Q1025.0652 224.1152 1024.2507 223.21 Q1023.4362 222.3047 1023.4362 220.7871 Q1023.4362 219.252 1024.2537 218.3584 Q1025.071 217.4648 1026.4714 217.4648 Q1027.8718 217.4648 1028.6892 218.3584 Q1029.5066 219.252 1029.5066 220.7754 Q1029.5066 222.334 1028.6863 223.2246 Q1027.866 224.1152 1026.4304 224.1152 ZM1026.448 223.248 Q1028.282 223.248 1028.282 220.7754 Q1028.282 218.332 1026.4714 218.332 Q1024.6667 218.332 1024.6667 220.7871 Q1024.6667 223.248 1026.448 223.248 ZM1035.2898 223.9688 L1035.2898 222.7734 Q1034.3699 224.1152 1033.0574 224.1152 Q1032.2253 224.1152 1031.7332 223.5908 Q1031.241 223.0664 1031.241 222.1758 L1031.241 217.6055 L1032.3953 217.6055 L1032.3953 221.8008 Q1032.3953 222.5156 1032.6033 222.8174 Q1032.8113 223.1191 1033.2976 223.1191 Q1034.3523 223.1191 1035.2898 221.7305 L1035.2898 217.6055 L1036.4441 217.6055 L1036.4441 223.9688 ZM1040.6687 224.1152 Q1039.7898 224.1152 1039.2976 223.6113 Q1038.8054 223.1074 1038.8054 222.2109 L1038.8054 218.4727 L1038.0085 218.4727 L1038.0085 217.6055 L1038.8054 217.6055 L1038.8054 216.4512 L1039.9597 216.3398 L1039.9597 217.6055 L1041.6238 217.6055 L1041.6238 218.4727 L1039.9597 218.4727 L1039.9597 222 Q1039.9597 223.248 1041.0378 223.248 Q1041.2664 223.248 1041.5945 223.1719 L1041.5945 223.9688 Q1041.0613 224.1152 1040.6687 224.1152 ZM1047.0437 223.9688 L1047.0437 214.7168 L1048.198 214.7168 L1048.198 223.9688 ZM1053.0027 224.1152 Q1051.6375 224.1152 1050.823 223.21 Q1050.0085 222.3047 1050.0085 220.7871 Q1050.0085 219.252 1050.8259 218.3584 Q1051.6433 217.4648 1053.0437 217.4648 Q1054.4441 217.4648 1055.2615 218.3584 Q1056.0789 219.252 1056.0789 220.7754 Q1056.0789 222.334 1055.2585 223.2246 Q1054.4382 224.1152 1053.0027 224.1152 ZM1053.0203 223.248 Q1054.8542 223.248 1054.8542 220.7754 Q1054.8542 218.332 1053.0437 218.332 Q1051.239 218.332 1051.239 220.7871 Q1051.239 223.248 1053.0203 223.248 ZM1061.8621 223.9688 L1061.8621 222.7734 Q1060.9421 224.1152 1059.6296 224.1152 Q1058.7976 224.1152 1058.3054 223.5908 Q1057.8132 223.0664 1057.8132 222.1758 L1057.8132 217.6055 L1058.9675 217.6055 L1058.9675 221.8008 Q1058.9675 222.5156 1059.1755 222.8174 Q1059.3835 223.1191 1059.8699 223.1191 Q1060.9246 223.1191 1061.8621 221.7305 L1061.8621 217.6055 L1063.0164 217.6055 L1063.0164 223.9688 ZM1069.4148 223.9688 L1069.4148 222.7734 Q1068.7117 224.1152 1067.2937 224.1152 Q1066.1453 224.1152 1065.4861 223.2773 Q1064.8269 222.4395 1064.8269 220.9863 Q1064.8269 219.3984 1065.574 218.4316 Q1066.321 217.4648 1067.5398 217.4648 Q1068.6707 217.4648 1069.4148 218.332 L1069.4148 214.7168 L1070.575 214.7168 L1070.575 223.9688 ZM1069.4148 219.123 Q1068.5183 218.332 1067.7156 218.332 Q1066.0574 218.332 1066.0574 220.8691 Q1066.0574 223.1016 1067.5339 223.1016 Q1068.4949 223.1016 1069.4148 222.0527 ZM1072.8835 223.9688 L1072.8835 217.6055 L1074.0378 217.6055 L1074.0378 218.8008 Q1074.9519 217.4648 1076.2761 217.4648 Q1077.1023 217.4648 1077.5945 217.9893 Q1078.0867 218.5137 1078.0867 219.3984 L1078.0867 223.9688 L1076.9324 223.9688 L1076.9324 219.7734 Q1076.9324 219.0645 1076.7244 218.7627 Q1076.5164 218.4609 1076.0359 218.4609 Q1074.9753 218.4609 1074.0378 219.8496 L1074.0378 223.9688 ZM1084.9949 223.7637 Q1083.8347 224.1152 1083.0085 224.1152 Q1081.6023 224.1152 1080.7146 223.1807 Q1079.8269 222.2461 1079.8269 220.7578 Q1079.8269 219.3105 1080.6091 218.3848 Q1081.3914 217.459 1082.6101 217.459 Q1083.7644 217.459 1084.3943 218.2793 Q1085.0242 219.0996 1085.0242 220.6113 L1085.0183 220.9688 L1081.0046 220.9688 Q1081.2566 223.2363 1083.2253 223.2363 Q1083.946 223.2363 1084.9949 222.8496 ZM1081.0574 220.1016 L1083.864 220.1016 Q1083.864 218.3262 1082.5398 218.3262 Q1081.2097 218.3262 1081.0574 220.1016 ZM1088.7039 224.1152 Q1087.9128 224.1152 1086.782 223.7461 L1086.782 222.6855 Q1087.9128 223.248 1088.7507 223.248 Q1089.2488 223.248 1089.5769 222.9785 Q1089.905 222.709 1089.905 222.3047 Q1089.905 221.7129 1088.9851 221.3262 L1088.3113 221.0391 Q1086.8171 220.418 1086.8171 219.252 Q1086.8171 218.4199 1087.406 217.9424 Q1087.9949 217.4648 1089.0203 217.4648 Q1089.5535 217.4648 1090.3386 217.6113 L1090.5789 217.6582 L1090.5789 218.6191 Q1089.6121 218.332 1089.0437 218.332 Q1087.9304 218.332 1087.9304 219.1406 Q1087.9304 219.6621 1088.7742 220.0195 L1089.3308 220.2539 Q1090.2742 220.6523 1090.6667 221.0947 Q1091.0593 221.5371 1091.0593 222.1992 Q1091.0593 223.0371 1090.3972 223.5762 Q1089.7351 224.1152 1088.7039 224.1152 ZM1094.821 224.1152 Q1094.03 224.1152 1092.8992 223.7461 L1092.8992 222.6855 Q1094.03 223.248 1094.8679 223.248 Q1095.366 223.248 1095.6941 222.9785 Q1096.0222 222.709 1096.0222 222.3047 Q1096.0222 221.7129 1095.1023 221.3262 L1094.4285 221.0391 Q1092.9343 220.418 1092.9343 219.252 Q1092.9343 218.4199 1093.5232 217.9424 Q1094.1121 217.4648 1095.1375 217.4648 Q1095.6707 217.4648 1096.4558 217.6113 L1096.696 217.6582 L1096.696 218.6191 Q1095.7292 218.332 1095.1609 218.332 Q1094.0476 218.332 1094.0476 219.1406 Q1094.0476 219.6621 1094.8914 220.0195 L1095.448 220.2539 Q1096.3914 220.6523 1096.7839 221.0947 Q1097.1765 221.5371 1097.1765 222.1992 Q1097.1765 223.0371 1096.5144 223.5762 Q1095.8523 224.1152 1094.821 224.1152 Z" stroke="none" clip-path="url(#clipPath4)"/>
          <path d="M977.1266 238.1719 L977.1266 228.8496 L978.2809 228.8496 L978.2809 232.9336 Q978.9899 231.5977 980.4079 231.5977 Q981.5563 231.5977 982.2155 232.4355 Q982.8747 233.2734 982.8747 234.7266 Q982.8747 236.3086 982.1276 237.2783 Q981.3806 238.248 980.1618 238.248 Q979.0309 238.248 978.2809 237.3809 L978.1403 238.1719 ZM978.2809 236.584 Q979.1716 237.3809 979.9802 237.3809 Q981.6442 237.3809 981.6442 234.8438 Q981.6442 232.6055 980.1677 232.6055 Q979.2009 232.6055 978.2809 233.6543 ZM989.3434 237.8965 Q988.1833 238.248 987.3571 238.248 Q985.9509 238.248 985.0632 237.3135 Q984.1755 236.3789 984.1755 234.8906 Q984.1755 233.4434 984.9577 232.5176 Q985.7399 231.5918 986.9587 231.5918 Q988.113 231.5918 988.7429 232.4121 Q989.3727 233.2324 989.3727 234.7441 L989.3669 235.1016 L985.3532 235.1016 Q985.6052 237.3691 987.5739 237.3691 Q988.2946 237.3691 989.3434 236.9824 ZM985.4059 234.2344 L988.2126 234.2344 Q988.2126 232.459 986.8884 232.459 Q985.5583 232.459 985.4059 234.2344 ZM993.2751 238.248 Q992.3962 238.248 991.904 237.7441 Q991.4118 237.2402 991.4118 236.3438 L991.4118 232.6055 L990.6149 232.6055 L990.6149 231.7383 L991.4118 231.7383 L991.4118 230.584 L992.5661 230.4727 L992.5661 231.7383 L994.2302 231.7383 L994.2302 232.6055 L992.5661 232.6055 L992.5661 236.1328 Q992.5661 237.3809 993.6442 237.3809 Q993.8727 237.3809 994.2009 237.3047 L994.2009 238.1016 Q993.6677 238.248 993.2751 238.248 ZM996.5915 238.1016 L994.7692 231.7383 L995.9001 231.7383 L997.2946 236.666 L998.8005 231.7383 L999.9548 231.7383 L1001.2731 236.666 L1002.8727 231.7383 L1003.863 231.7383 L1001.7888 238.1016 L1000.6286 238.1016 L999.2809 233.1738 L997.7575 238.1016 ZM1009.7634 237.8965 Q1008.6032 238.248 1007.777 238.248 Q1006.3708 238.248 1005.4831 237.3135 Q1004.5954 236.3789 1004.5954 234.8906 Q1004.5954 233.4434 1005.3776 232.5176 Q1006.1599 231.5918 1007.3786 231.5918 Q1008.5329 231.5918 1009.1628 232.4121 Q1009.7927 233.2324 1009.7927 234.7441 L1009.7868 235.1016 L1005.7731 235.1016 Q1006.0251 237.3691 1007.9938 237.3691 Q1008.7145 237.3691 1009.7634 236.9824 ZM1005.8259 234.2344 L1008.6325 234.2344 Q1008.6325 232.459 1007.3083 232.459 Q1005.9782 232.459 1005.8259 234.2344 ZM1016.4489 237.8965 Q1015.2888 238.248 1014.4626 238.248 Q1013.0563 238.248 1012.1686 237.3135 Q1011.2809 236.3789 1011.2809 234.8906 Q1011.2809 233.4434 1012.0632 232.5176 Q1012.8454 231.5918 1014.0641 231.5918 Q1015.2184 231.5918 1015.8483 232.4121 Q1016.4782 233.2324 1016.4782 234.7441 L1016.4724 235.1016 L1012.4587 235.1016 Q1012.7106 237.3691 1014.6794 237.3691 Q1015.4001 237.3691 1016.4489 236.9824 ZM1012.5114 234.2344 L1015.3181 234.2344 Q1015.3181 232.459 1013.9938 232.459 Q1012.6638 232.459 1012.5114 234.2344 ZM1018.4704 238.1016 L1018.4704 231.7383 L1019.6247 231.7383 L1019.6247 232.9336 Q1020.5388 231.5977 1021.863 231.5977 Q1022.6891 231.5977 1023.1813 232.1221 Q1023.6735 232.6465 1023.6735 233.5312 L1023.6735 238.1016 L1022.5192 238.1016 L1022.5192 233.9062 Q1022.5192 233.1973 1022.3112 232.8955 Q1022.1032 232.5938 1021.6227 232.5938 Q1020.5622 232.5938 1019.6247 233.9824 L1019.6247 238.1016 ZM1031.4021 238.248 Q1030.6111 238.248 1029.4802 237.8789 L1029.4802 236.8184 Q1030.6111 237.3809 1031.449 237.3809 Q1031.947 237.3809 1032.2751 237.1113 Q1032.6033 236.8418 1032.6033 236.4375 Q1032.6033 235.8457 1031.6833 235.459 L1031.0095 235.1719 Q1029.5154 234.5508 1029.5154 233.3848 Q1029.5154 232.5527 1030.1042 232.0752 Q1030.6931 231.5977 1031.7185 231.5977 Q1032.2517 231.5977 1033.0369 231.7441 L1033.2771 231.791 L1033.2771 232.752 Q1032.3103 232.4648 1031.7419 232.4648 Q1030.6287 232.4648 1030.6287 233.2734 Q1030.6287 233.7949 1031.4724 234.1523 L1032.0291 234.3867 Q1032.9724 234.7852 1033.365 235.2275 Q1033.7576 235.6699 1033.7576 236.332 Q1033.7576 237.1699 1033.0955 237.709 Q1032.4333 238.248 1031.4021 238.248 ZM1039.113 237.293 Q1038.0759 238.248 1037.115 238.248 Q1036.324 238.248 1035.8025 237.7529 Q1035.281 237.2578 1035.281 236.502 Q1035.281 235.459 1036.157 234.8994 Q1037.033 234.3398 1038.6677 234.3398 L1038.9431 234.3398 L1038.9431 233.5723 Q1038.9431 232.4648 1037.8064 232.4648 Q1036.8923 232.4648 1035.8318 233.0273 L1035.8318 232.0723 Q1036.9978 231.5977 1038.0173 231.5977 Q1039.0837 231.5977 1039.5906 232.0781 Q1040.0974 232.5586 1040.0974 233.5723 L1040.0974 236.4551 Q1040.0974 237.4453 1040.7068 237.4453 Q1040.783 237.4453 1040.9294 237.4219 L1041.0115 238.0605 Q1040.6189 238.248 1040.1443 238.248 Q1039.3357 238.248 1039.113 237.293 ZM1038.9431 236.666 L1038.9431 235.0195 L1038.5564 235.0078 Q1037.6072 235.0078 1037.0212 235.3682 Q1036.4353 235.7285 1036.4353 236.3145 Q1036.4353 236.7305 1036.7283 237.0176 Q1037.0212 237.3047 1037.4431 237.3047 Q1038.1638 237.3047 1038.9431 236.666 ZM1042.4587 238.1016 L1042.4587 231.7383 L1043.613 231.7383 L1043.613 232.9336 Q1044.4568 231.5977 1045.781 231.5977 Q1047.0583 231.5977 1047.5212 232.9336 Q1048.3416 231.5918 1049.6541 231.5918 Q1050.4978 231.5918 1050.9607 232.0869 Q1051.4236 232.582 1051.4236 233.4727 L1051.4236 238.1016 L1050.2634 238.1016 L1050.2634 233.6543 Q1050.2634 232.5645 1049.4021 232.5645 Q1048.5056 232.5645 1047.5212 233.8359 L1047.5212 238.1016 L1046.3611 238.1016 L1046.3611 233.6543 Q1046.3611 232.5586 1045.4822 232.5586 Q1044.6091 232.5586 1043.613 233.8359 L1043.613 238.1016 ZM1058.3259 237.8965 Q1057.1658 238.248 1056.3396 238.248 Q1054.9333 238.248 1054.0457 237.3135 Q1053.158 236.3789 1053.158 234.8906 Q1053.158 233.4434 1053.9402 232.5176 Q1054.7224 231.5918 1055.9412 231.5918 Q1057.0955 231.5918 1057.7253 232.4121 Q1058.3552 233.2324 1058.3552 234.7441 L1058.3494 235.1016 L1054.3357 235.1016 Q1054.5876 237.3691 1056.5564 237.3691 Q1057.2771 237.3691 1058.3259 236.9824 ZM1054.3884 234.2344 L1057.1951 234.2344 Q1057.1951 232.459 1055.8708 232.459 Q1054.5408 232.459 1054.3884 234.2344 ZM1066.0544 238.248 Q1065.1755 238.248 1064.6833 237.7441 Q1064.1912 237.2402 1064.1912 236.3438 L1064.1912 232.6055 L1063.3943 232.6055 L1063.3943 231.7383 L1064.1912 231.7383 L1064.1912 230.584 L1065.3455 230.4727 L1065.3455 231.7383 L1067.0095 231.7383 L1067.0095 232.6055 L1065.3455 232.6055 L1065.3455 236.1328 Q1065.3455 237.3809 1066.4236 237.3809 Q1066.6521 237.3809 1066.9802 237.3047 L1066.9802 238.1016 Q1066.447 238.248 1066.0544 238.248 ZM1068.6326 238.1016 L1068.6326 231.7383 L1069.7869 231.7383 L1069.7869 238.1016 ZM1068.6326 230.584 L1068.6326 229.4297 L1069.7869 229.4297 L1069.7869 230.584 ZM1072.1013 238.1016 L1072.1013 231.7383 L1073.2556 231.7383 L1073.2556 232.9336 Q1074.0994 231.5977 1075.4236 231.5977 Q1076.7009 231.5977 1077.1638 232.9336 Q1077.9841 231.5918 1079.2966 231.5918 Q1080.1404 231.5918 1080.6033 232.0869 Q1081.0662 232.582 1081.0662 233.4727 L1081.0662 238.1016 L1079.906 238.1016 L1079.906 233.6543 Q1079.906 232.5645 1079.0447 232.5645 Q1078.1482 232.5645 1077.1638 233.8359 L1077.1638 238.1016 L1076.0037 238.1016 L1076.0037 233.6543 Q1076.0037 232.5586 1075.1248 232.5586 Q1074.2517 232.5586 1073.2556 233.8359 L1073.2556 238.1016 ZM1083.3044 238.1719 L1083.3044 228.8496 L1084.4587 228.8496 L1084.4587 232.9336 Q1085.1677 231.5977 1086.5857 231.5977 Q1087.7341 231.5977 1088.3933 232.4355 Q1089.0525 233.2734 1089.0525 234.7266 Q1089.0525 236.3086 1088.3054 237.2783 Q1087.5583 238.248 1086.3396 238.248 Q1085.2087 238.248 1084.4587 237.3809 L1084.3181 238.1719 ZM1084.4587 236.584 Q1085.3494 237.3809 1086.158 237.3809 Q1087.822 237.3809 1087.822 234.8438 Q1087.822 232.6055 1086.3455 232.6055 Q1085.3787 232.6055 1084.4587 233.6543 ZM1090.8572 238.1016 L1090.8572 231.7383 L1092.0115 231.7383 L1092.0115 232.9336 Q1092.697 231.5977 1094.0037 231.5977 Q1094.1794 231.5977 1094.3728 231.627 L1094.3728 232.7051 Q1094.074 232.6055 1093.8455 232.6055 Q1092.7498 232.6055 1092.0115 233.9062 L1092.0115 238.1016 ZM1100.4314 237.8965 Q1099.2712 238.248 1098.4451 238.248 Q1097.0388 238.248 1096.1511 237.3135 Q1095.2634 236.3789 1095.2634 234.8906 Q1095.2634 233.4434 1096.0457 232.5176 Q1096.8279 231.5918 1098.0466 231.5918 Q1099.2009 231.5918 1099.8308 232.4121 Q1100.4607 233.2324 1100.4607 234.7441 L1100.4548 235.1016 L1096.4412 235.1016 Q1096.6931 237.3691 1098.6619 237.3691 Q1099.3826 237.3691 1100.4314 236.9824 ZM1096.4939 234.2344 L1099.3005 234.2344 Q1099.3005 232.459 1097.9763 232.459 Q1096.6462 232.459 1096.4939 234.2344 ZM1102.7634 238.1016 L1102.7634 236.9473 L1103.9177 236.9473 L1103.9177 238.1016 ZM1102.7634 235.7871 L1102.7634 235.4707 Q1102.7634 234.3516 1103.6248 233.3672 L1103.9939 232.9395 Q1104.9138 231.8848 1104.9138 231.2109 Q1104.9138 230.6895 1104.5095 230.3848 Q1104.1052 230.0801 1103.4197 230.0801 Q1102.5232 230.0801 1101.5154 230.5137 L1101.5154 229.5352 Q1102.5994 229.207 1103.5427 229.207 Q1104.738 229.207 1105.4412 229.7432 Q1106.1443 230.2793 1106.1443 231.1934 Q1106.1443 231.709 1105.9421 232.0811 Q1105.74 232.4531 1105.1658 232.998 L1104.8025 233.3379 Q1104.2576 233.8535 1104.0876 234.2021 Q1103.9177 234.5508 1103.9177 235.1426 L1103.9177 235.7871 Z" clip-path="url(#clipPath4)" stroke="none"/>
        </g>
      </g>
    </g>
    <g id="y.node.4">
      <g fill="url(#linearGradient5)" text-rendering="geometricPrecision" shape-rendering="geometricPrecision" transform="matrix(1,0,0,1,-9,1)" stroke="url(#linearGradient5)">
        <path d="M861.0333 321 L946.0333 363.5 L861.0333 406 L776.0333 363.5 Z" stroke="none"/>
      </g>
      <g text-rendering="geometricPrecision" stroke-miterlimit="1.45" shape-rendering="geometricPrecision" transform="matrix(1,0,0,1,-9,1)" stroke-linecap="butt">
        <path fill="none" d="M861.0333 321 L946.0333 363.5 L861.0333 406 L776.0333 363.5 Z"/>
      </g>
      <g>
        <g text-rendering="geometricPrecision" shape-rendering="geometricPrecision" transform="matrix(1,0,0,1,-9,1)">
          <path d="M850.0616 366.2266 Q849.0245 367.1816 848.0636 367.1816 Q847.2726 367.1816 846.7511 366.6865 Q846.2296 366.1914 846.2296 365.4355 Q846.2296 364.3926 847.1056 363.833 Q847.9816 363.2734 849.6163 363.2734 L849.8917 363.2734 L849.8917 362.5059 Q849.8917 361.3984 848.755 361.3984 Q847.8409 361.3984 846.7804 361.9609 L846.7804 361.0059 Q847.9464 360.5312 848.9659 360.5312 Q850.0323 360.5312 850.5392 361.0117 Q851.046 361.4922 851.046 362.5059 L851.046 365.3887 Q851.046 366.3789 851.6554 366.3789 Q851.7316 366.3789 851.8781 366.3555 L851.9601 366.9941 Q851.5675 367.1816 851.0929 367.1816 Q850.2843 367.1816 850.0616 366.2266 ZM849.8917 365.5996 L849.8917 363.9531 L849.505 363.9414 Q848.5558 363.9414 847.9698 364.3018 Q847.3839 364.6621 847.3839 365.248 Q847.3839 365.6641 847.6769 365.9512 Q847.9698 366.2383 848.3917 366.2383 Q849.1124 366.2383 849.8917 365.5996 ZM857.2042 367.0352 L857.2042 357.7832 L858.3585 357.7832 L858.3585 367.0352 ZM863.1632 367.1816 Q861.798 367.1816 860.9835 366.2764 Q860.1691 365.3711 860.1691 363.8535 Q860.1691 362.3184 860.9865 361.4248 Q861.8038 360.5312 863.2042 360.5312 Q864.6046 360.5312 865.422 361.4248 Q866.2394 362.3184 866.2394 363.8418 Q866.2394 365.4004 865.4191 366.291 Q864.5988 367.1816 863.1632 367.1816 ZM863.1808 366.3145 Q865.0148 366.3145 865.0148 363.8418 Q865.0148 361.3984 863.2042 361.3984 Q861.3995 361.3984 861.3995 363.8535 Q861.3995 366.3145 863.1808 366.3145 ZM869.9542 367.1816 Q869.0753 367.1816 868.5831 366.6777 Q868.0909 366.1738 868.0909 365.2773 L868.0909 361.5391 L867.2941 361.5391 L867.2941 360.6719 L868.0909 360.6719 L868.0909 359.5176 L869.2452 359.4062 L869.2452 360.6719 L870.9093 360.6719 L870.9093 361.5391 L869.2452 361.5391 L869.2452 365.0664 Q869.2452 366.3145 870.3234 366.3145 Q870.5519 366.3145 870.88 366.2383 L870.88 367.0352 Q870.3468 367.1816 869.9542 367.1816 ZM872.8429 367.0352 L872.8429 365.8809 L873.9972 365.8809 L873.9972 367.0352 ZM872.8429 364.7207 L872.8429 364.4043 Q872.8429 363.2852 873.7042 362.3008 L874.0734 361.873 Q874.9933 360.8184 874.9933 360.1445 Q874.9933 359.623 874.589 359.3184 Q874.1847 359.0137 873.4991 359.0137 Q872.6027 359.0137 871.5948 359.4473 L871.5948 358.4688 Q872.6788 358.1406 873.6222 358.1406 Q874.8175 358.1406 875.5206 358.6768 Q876.2238 359.2129 876.2238 360.127 Q876.2238 360.6426 876.0216 361.0146 Q875.8195 361.3867 875.2452 361.9316 L874.882 362.2715 Q874.337 362.7871 874.1671 363.1357 Q873.9972 363.4844 873.9972 364.0762 L873.9972 364.7207 Z" stroke="none" clip-path="url(#clipPath5)"/>
        </g>
      </g>
    </g>
    <g id="y.node.5">
      <g fill="url(#linearGradient6)" text-rendering="geometricPrecision" shape-rendering="geometricPrecision" transform="matrix(1,0,0,1,-9,1)" stroke="url(#linearGradient6)">
        <path d="M606.4 210.5 L755.4 210.5 L755.4 244.5 L606.4 244.5 Z" stroke="none"/>
      </g>
      <g text-rendering="geometricPrecision" stroke-miterlimit="1.45" shape-rendering="geometricPrecision" transform="matrix(1,0,0,1,-9,1)" stroke-linecap="butt">
        <path fill="none" d="M606.4 210.5 L755.4 210.5 L755.4 244.5 L606.4 244.5 Z"/>
      </g>
      <g>
        <g text-rendering="geometricPrecision" stroke-miterlimit="1.45" shape-rendering="geometricPrecision" font-family="sans-serif" transform="matrix(1,0,0,1,-9,1)" stroke-linecap="butt">
          <text x="624.2574" xml:space="preserve" y="224.1016" stroke="none">FluidSpectralShape </text>
          <text x="619.6637" xml:space="preserve" y="238.2344" stroke="none">(centroid, MIDI units)</text>
        </g>
      </g>
    </g>
    <g id="y.node.6">
      <g fill="url(#linearGradient7)" text-rendering="geometricPrecision" shape-rendering="geometricPrecision" transform="matrix(1,0,0,1,-9,1)" stroke="url(#linearGradient7)">
        <path d="M10 353.5 L104 353.5 L104 373.5 L10 373.5 Z" stroke="none"/>
      </g>
      <g text-rendering="geometricPrecision" stroke-miterlimit="1.45" shape-rendering="geometricPrecision" transform="matrix(1,0,0,1,-9,1)" stroke-linecap="butt">
        <path fill="none" d="M10 353.5 L104 353.5 L104 373.5 L10 373.5 Z"/>
      </g>
      <g>
        <g text-rendering="geometricPrecision" stroke-miterlimit="1.45" shape-rendering="geometricPrecision" font-family="sans-serif" transform="matrix(1,0,0,1,-9,1)" stroke-linecap="butt">
          <text x="28.7227" xml:space="preserve" y="367.1016" stroke="none">FluidPitch</text>
        </g>
      </g>
    </g>
    <g id="y.node.7">
      <g fill="url(#linearGradient8)" text-rendering="geometricPrecision" shape-rendering="geometricPrecision" transform="matrix(1,0,0,1,-9,1)" stroke="url(#linearGradient8)">
        <path d="M428.2667 353.5 L522.2667 353.5 L522.2667 373.5 L428.2667 373.5 Z" stroke="none"/>
      </g>
      <g text-rendering="geometricPrecision" stroke-miterlimit="1.45" shape-rendering="geometricPrecision" transform="matrix(1,0,0,1,-9,1)" stroke-linecap="butt">
        <path fill="none" d="M428.2667 353.5 L522.2667 353.5 L522.2667 373.5 L428.2667 373.5 Z"/>
      </g>
      <g>
        <g text-rendering="geometricPrecision" stroke-miterlimit="1.45" shape-rendering="geometricPrecision" font-family="sans-serif" transform="matrix(1,0,0,1,-9,1)" stroke-linecap="butt">
          <text x="438.1505" xml:space="preserve" y="367.1016" stroke="none">FluidChroma</text>
        </g>
      </g>
    </g>
    <g id="y.node.8">
      <g fill="url(#linearGradient9)" text-rendering="geometricPrecision" shape-rendering="geometricPrecision" transform="matrix(1,0,0,1,-9,1)" stroke="url(#linearGradient9)">
        <path d="M1174.3 211.5 L1268.3 211.5 L1268.3 243.5 L1174.3 243.5 Z" stroke="none"/>
      </g>
      <g text-rendering="geometricPrecision" stroke-miterlimit="1.45" shape-rendering="geometricPrecision" transform="matrix(1,0,0,1,-9,1)" stroke-linecap="butt">
        <path fill="none" d="M1174.3 211.5 L1268.3 211.5 L1268.3 243.5 L1174.3 243.5 Z"/>
      </g>
      <g>
        <g text-rendering="geometricPrecision" stroke-miterlimit="1.45" shape-rendering="geometricPrecision" font-family="sans-serif" transform="matrix(1,0,0,1,-9,1)" stroke-linecap="butt">
          <text x="1188.5286" xml:space="preserve" y="224.9688" stroke="none">FluidMFCC </text>
          <text x="1193.7024" xml:space="preserve" y="239.1016" stroke="none">(trim 0th)</text>
        </g>
      </g>
    </g>
    <g id="y.node.9">
      <g fill="url(#linearGradient10)" text-rendering="geometricPrecision" shape-rendering="geometricPrecision" transform="matrix(1,0,0,1,-9,1)" stroke="url(#linearGradient10)">
        <path d="M994.1667 347.5 L1088.1666 347.5 L1088.1666 379.5 L994.1667 379.5 Z" stroke="none"/>
      </g>
      <g text-rendering="geometricPrecision" stroke-miterlimit="1.45" shape-rendering="geometricPrecision" transform="matrix(1,0,0,1,-9,1)" stroke-linecap="butt">
        <path fill="none" d="M994.1667 347.5 L1088.1666 347.5 L1088.1666 379.5 L994.1667 379.5 Z"/>
      </g>
      <g>
        <g text-rendering="geometricPrecision" stroke-miterlimit="1.45" shape-rendering="geometricPrecision" font-family="sans-serif" transform="matrix(1,0,0,1,-9,1)" stroke-linecap="butt">
          <text x="1008.3952" xml:space="preserve" y="360.9688" stroke="none">FluidMFCC </text>
          <text x="1011.6354" xml:space="preserve" y="375.1016" stroke="none">(keep 0th)</text>
        </g>
      </g>
    </g>
    <g id="y.node.10">
      <g fill="url(#linearGradient11)" text-rendering="geometricPrecision" shape-rendering="geometricPrecision" transform="matrix(1,0,0,1,-9,1)" stroke="url(#linearGradient11)">
        <path d="M633.9 353.5 L727.9 353.5 L727.9 373.5 L633.9 373.5 Z" stroke="none"/>
      </g>
      <g text-rendering="geometricPrecision" stroke-miterlimit="1.45" shape-rendering="geometricPrecision" transform="matrix(1,0,0,1,-9,1)" stroke-linecap="butt">
        <path fill="none" d="M633.9 353.5 L727.9 353.5 L727.9 373.5 L633.9 373.5 Z"/>
      </g>
      <g>
        <g text-rendering="geometricPrecision" stroke-miterlimit="1.45" shape-rendering="geometricPrecision" font-family="sans-serif" transform="matrix(1,0,0,1,-9,1)" stroke-linecap="butt">
          <text x="637.2477" xml:space="preserve" y="367.1016" stroke="none">FluidMelBands </text>
        </g>
      </g>
    </g>
    <g id="y.node.11">
      <g fill="url(#linearGradient12)" text-rendering="geometricPrecision" shape-rendering="geometricPrecision" transform="matrix(1,0,0,1,-9,1)" stroke="url(#linearGradient12)">
        <circle r="20" cx="680.9" cy="20" stroke="none"/>
      </g>
      <g text-rendering="geometricPrecision" stroke-miterlimit="1.45" shape-rendering="geometricPrecision" transform="matrix(1,0,0,1,-9,1)" stroke-linecap="butt">
        <circle fill="none" r="20" cx="680.9" cy="20"/>
      </g>
      <g>
        <g text-rendering="geometricPrecision" stroke-miterlimit="1.45" shape-rendering="geometricPrecision" font-family="sans-serif" transform="matrix(1,0,0,1,-9,1)" stroke-linecap="butt">
          <text x="667.5846" xml:space="preserve" y="24.5352" stroke="none">start</text>
        </g>
      </g>
    </g>
    <g id="y.edge.5">
      <g text-rendering="geometricPrecision" stroke-miterlimit="1.45" shape-rendering="geometricPrecision" transform="matrix(1,0,0,1,-9,1)" stroke-linecap="butt">
        <path fill="none" d="M595.9 112.5 L475.2667 112.5 L475.2667 186"/>
      </g>
      <g>
        <g text-rendering="geometricPrecision" stroke-miterlimit="1.45" shape-rendering="geometricPrecision" font-family="sans-serif" transform="matrix(1,0,0,1,-9,1)" stroke-linecap="butt">
          <text x="564.7028" xml:space="preserve" y="105.9688" stroke="none">yes</text>
        </g>
      </g>
    </g>
    <g onmouseout="HideTooltip(evt)" id="y.edge.7" onmousemove="ShowTooltip(evt)">
      <g text-rendering="geometricPrecision" stroke-miterlimit="1.45" shape-rendering="geometricPrecision" transform="matrix(1,0,0,1,-9,1)" stroke-linecap="butt">
        <path fill="none" d="M392.2359 227.5 L266.1333 227.5 L266.1333 300"/>
      </g>
      <g>
        <g text-rendering="geometricPrecision" stroke-miterlimit="1.45" shape-rendering="geometricPrecision" font-family="sans-serif" transform="matrix(1,0,0,1,-9,1)" stroke-linecap="butt">
          <text x="361.0694" xml:space="preserve" y="220.9688" stroke="none">yes</text>
        </g>
      </g>
    </g>
    <g id="y.edge.4">
      <g text-rendering="geometricPrecision" stroke-miterlimit="1.45" shape-rendering="geometricPrecision" transform="matrix(1,0,0,1,-9,1)" stroke-linecap="butt">
        <path fill="none" d="M765.9336 112.5 L1041.1666 112.5 L1041.1666 185"/>
      </g>
      <g>
        <g text-rendering="geometricPrecision" stroke-miterlimit="1.45" shape-rendering="geometricPrecision" font-family="sans-serif" transform="matrix(1,0,0,1,-9,1)" stroke-linecap="butt">
          <text x="778.025" xml:space="preserve" y="105.9688" stroke="none">no</text>
        </g>
      </g>
    </g>
    <g id="y.edge.1">
      <g text-rendering="geometricPrecision" stroke-miterlimit="1.45" shape-rendering="geometricPrecision" transform="matrix(1,0,0,1,-9,1)" stroke-linecap="butt">
        <path fill="none" d="M956.1667 227.5 L861.0333 227.5 L861.0333 321"/>
      </g>
      <g>
        <g text-rendering="geometricPrecision" stroke-miterlimit="1.45" shape-rendering="geometricPrecision" font-family="sans-serif" transform="matrix(1,0,0,1,-9,1)" stroke-linecap="butt">
          <text x="924.9297" xml:space="preserve" y="220.9688" stroke="none">yes</text>
        </g>
      </g>
    </g>
    <g id="y.edge.6">
      <g text-rendering="geometricPrecision" stroke-miterlimit="1.45" shape-rendering="geometricPrecision" transform="matrix(1,0,0,1,-9,1)" stroke-linecap="butt">
        <path fill="none" d="M558.2667 227.5 L606.4 227.5"/>
      </g>
      <g>
        <g text-rendering="geometricPrecision" stroke-miterlimit="1.45" shape-rendering="geometricPrecision" font-family="sans-serif" transform="matrix(1,0,0,1,-9,1)" stroke-linecap="butt">
          <text x="570.3917" xml:space="preserve" y="220.9688" stroke="none">no</text>
        </g>
      </g>
    </g>
    <g id="y.edge.8">
      <g text-rendering="geometricPrecision" stroke-miterlimit="1.45" shape-rendering="geometricPrecision" transform="matrix(1,0,0,1,-9,1)" stroke-linecap="butt">
        <path fill="none" d="M152.0863 363.5 L104 363.5"/>
      </g>
      <g>
        <g text-rendering="geometricPrecision" stroke-miterlimit="1.45" shape-rendering="geometricPrecision" font-family="sans-serif" transform="matrix(1,0,0,1,-9,1)" stroke-linecap="butt">
          <text x="120.9361" xml:space="preserve" y="356.9688" stroke="none">yes</text>
        </g>
      </g>
    </g>
    <g id="y.edge.9">
      <g text-rendering="geometricPrecision" stroke-miterlimit="1.45" shape-rendering="geometricPrecision" transform="matrix(1,0,0,1,-9,1)" stroke-linecap="butt">
        <path fill="none" d="M380.1333 363.5 L428.2197 363.5"/>
      </g>
      <g>
        <g text-rendering="geometricPrecision" stroke-miterlimit="1.45" shape-rendering="geometricPrecision" font-family="sans-serif" transform="matrix(1,0,0,1,-9,1)" stroke-linecap="butt">
          <text x="392.2583" xml:space="preserve" y="356.9688" stroke="none">no</text>
        </g>
      </g>
    </g>
    <g id="y.edge.0">
      <g text-rendering="geometricPrecision" stroke-miterlimit="1.45" shape-rendering="geometricPrecision" transform="matrix(1,0,0,1,-9,1)" stroke-linecap="butt">
        <path fill="none" d="M1126.1666 227.5 L1174.3 227.5"/>
      </g>
      <g>
        <g text-rendering="geometricPrecision" stroke-miterlimit="1.45" shape-rendering="geometricPrecision" font-family="sans-serif" transform="matrix(1,0,0,1,-9,1)" stroke-linecap="butt">
          <text x="1138.2916" xml:space="preserve" y="220.9688" stroke="none">no</text>
        </g>
      </g>
    </g>
    <g id="y.edge.3">
      <g text-rendering="geometricPrecision" stroke-miterlimit="1.45" shape-rendering="geometricPrecision" transform="matrix(1,0,0,1,-9,1)" stroke-linecap="butt">
        <path fill="none" d="M946.0333 363.5 L994.1667 363.5"/>
      </g>
      <g>
        <g text-rendering="geometricPrecision" stroke-miterlimit="1.45" shape-rendering="geometricPrecision" font-family="sans-serif" transform="matrix(1,0,0,1,-9,1)" stroke-linecap="butt">
          <text x="962.6908" xml:space="preserve" y="356.9688" stroke="none">no</text>
        </g>
      </g>
    </g>
    <g id="y.edge.2">
      <g text-rendering="geometricPrecision" stroke-miterlimit="1.45" shape-rendering="geometricPrecision" transform="matrix(1,0,0,1,-9,1)" stroke-linecap="butt">
        <path fill="none" d="M775.9863 363.5 L727.947 363.5"/>
      </g>
      <g>
        <g text-rendering="geometricPrecision" stroke-miterlimit="1.45" shape-rendering="geometricPrecision" font-family="sans-serif" transform="matrix(1,0,0,1,-9,1)" stroke-linecap="butt">
          <text x="744.8361" xml:space="preserve" y="356.9688" stroke="none">yes</text>
        </g>
      </g>
    </g>
    <g id="y.edge.10">
      <g text-rendering="geometricPrecision" stroke-miterlimit="1.45" shape-rendering="geometricPrecision" transform="matrix(1,0,0,1,-9,1)" stroke-linecap="butt">
        <path fill="none" d="M680.9 40 L680.9 70"/>
      </g>
    </g>
    <g visibility="hidden" id="tooltip.y.edge.7" pointer-events="none">
      <g fill="rgb(255,255,204)" text-rendering="geometricPrecision" font-size="11px" shape-rendering="geometricPrecision" font-family="'Lucida Grande'" stroke="rgb(255,255,204)">
        <rect x="0" width="81" height="18" y="0" clip-path="url(#clipPath6)" stroke="none"/>
        <text fill="black" x="3" xml:space="preserve" y="13" clip-path="url(#clipPath6)" stroke="none">speciffic pitch</text>
      </g>
    </g>
  </g>
</svg>
