<?xml version="1.0" encoding="utf-8"?>
<!-- Generator: Adobe Illustrator 24.3.0, SVG Export Plug-In . SVG Version: 6.00 Build 0)  -->
<svg version="1.1" id="Layer_1" xmlns="http://www.w3.org/2000/svg" xmlns:xlink="http://www.w3.org/1999/xlink" x="0px" y="0px"
	 viewBox="0 0 904.04 519.36" style="enable-background:new 0 0 904.04 519.36;" xml:space="preserve">
<style type="text/css">
	.st0{fill:#3FA9F5;}
	.st1{fill:#F2F2F2;}
</style>
<g>
	<path class="st0" d="M710.36,493.39c-51.39,0-102.21-13.68-146.94-39.57c-25.88-14.98-65.78-48.19-108.84-121.37l-7.38-12.54
		l0-10.14l2.85-4.84l17.24,0l8.71,14.8c22.25,37.81,57.63,88.01,99.84,112.43c40.97,23.7,87.49,36.23,134.53,36.23H743l10,10v5
		l-10,10H710.36z"/>
	<path class="st0" d="M710.36,478.39c-48.8,0-97.05-12.99-139.54-37.58c-42.49-24.58-78.26-73.2-103.45-116.01l-8.71-14.8
		l-2.85,4.84l7.38,12.54c25.62,43.54,62.01,92.78,105.23,117.78c43.22,25.01,92.3,38.22,141.94,38.22H743v-5H710.36z"/>
	<path class="st0" d="M462.28,316.06l-15.08,4.32l-57.1-84.74l-0.36-0.57c-20.28-34.47-49.08-63.15-83.27-82.93
		c-34.16-19.77-72.96-30.21-112.18-30.21h-3.14l-10-10v-5l10-10h3.14c43.58,0,86.66,11.6,124.6,33.55
		c37.8,21.87,69.64,53.53,92.1,91.57l57.6,84.88"/>
	<path class="st0" d="M401.83,226.42c-21.59-36.69-52.25-67.22-88.67-88.29c-36.41-21.07-77.77-32.21-119.59-32.21h-3.14v5h3.14
		c40.98,0,81.51,10.91,117.19,31.56c35.68,20.65,65.73,50.56,86.89,86.52L452.97,310l2.85-4.84L401.83,226.42z"/>
	<path class="st0" d="M461.92,313.11"/>
	<path class="st0" d="M451.93,339.45c-43.06,73.18-78.96,100.39-104.84,115.37c-44.74,25.89-95.55,39.57-146.94,39.57H167.5l-10-10
		v-5l10-10h32.64c47.04,0,93.56-12.53,134.53-36.23c23.28-13.47,59.48-43.89,99.76-112.29l3.08-7"/>
	<path class="st0" d="M339.67,441.81c-42.49,24.58-90.74,37.58-139.54,37.58H167.5v5h32.64c49.64,0,98.72-13.22,141.94-38.22"/>
	<path class="st0" d="M461.74,283.65l40.42-64.12c22.46-38.05,54.3-69.71,92.11-91.59c37.93-21.95,81.02-33.55,124.6-33.55h3.14
		l10,10v5l-10,10h-3.14c-39.23,0-78.02,10.45-112.18,30.21c-34.19,19.78-63.19,50.79-83.27,82.93l-0.35,0.55l-45.57,72.31"/>
	<path class="st0" d="M514.8,227.47c21.16-35.95,51.2-65.87,86.89-86.52c35.68-20.65,76.21-31.56,117.19-31.56h3.14v-5h-3.14
		c-41.82,0-83.18,11.14-119.59,32.21c-36.41,21.07-67.07,51.6-88.67,88.29"/>
	<path class="st0" d="M467.28,304.93"/>
	<path class="st0" d="M444.35,304.93"/>
	<path class="st0" d="M447.2,319.91"/>
</g>
<polygon class="st0" points="137.34,478.64 193.15,519.36 200.51,450.67 "/>
<polygon class="st0" points="91.46,105.95 126,165.78 160.54,105.95 "/>
<polygon class="st0" points="772.75,473.6 710.27,444.11 715.97,512.96 "/>
<path class="st0" d="M106.99,482.58C37.33,433.18-0.66,368.92,0.01,301.65c0.68-68.08,40.78-132.57,112.91-181.6l13.89,2.65
	l2.81,4.14l-2.65,13.89C61.81,185.01,25.6,242.25,25.01,301.9c-0.59,58.84,33.67,115.77,96.45,160.3l2.37,13.94l-2.89,4.08
	L106.99,482.58z"/>
<path class="st0" d="M119.78,474.43C52.87,426.97,16.37,365.64,17.01,301.75c0.65-64.71,39.19-126.3,108.53-173.42l2.81,4.14
	C60.4,178.64,22.64,238.77,22.01,301.8c-0.62,62.21,35.13,122.07,100.66,168.55L119.78,474.43z"/>
<polygon class="st0" points="814.63,105.88 776.85,163.72 745.65,102.07 "/>
<path class="st0" d="M783.11,478.21l-2.89-4.08l2.37-13.94c62.78-44.53,97.04-101.46,96.45-160.3
	c-0.6-59.65-36.81-116.89-101.96-161.17l-2.65-13.89l2.81-4.14l13.89-2.65c72.13,49.02,112.23,113.51,112.91,181.6
	c0.67,67.27-37.32,131.53-106.98,180.94L783.11,478.21z"/>
<path class="st0" d="M794.27,468.43l-2.89-4.08c65.54-46.48,101.28-106.34,100.66-168.55c-0.63-63.02-38.4-123.16-106.34-169.34
	l2.81-4.14c69.34,47.13,107.88,108.72,108.53,173.42C897.67,359.64,861.18,420.97,794.27,468.43z"/>
<g>
	<path class="st1" d="M116.31,277.28h-2.87v-19.52v-1.72c-0.08,0.19-0.21,0.48-0.39,0.86c-0.18,0.38-0.31,0.67-0.39,0.86
		l-8.82,20.01l-8.28-20.01c-0.06-0.16-0.16-0.42-0.33-0.78c-0.16-0.35-0.27-0.63-0.33-0.82v1.6v19.52h-2.87v-28.7h2.46l8.9,20.75
		c0.08,0.16,0.2,0.42,0.35,0.78c0.15,0.36,0.27,0.63,0.35,0.82c0.08-0.19,0.2-0.46,0.35-0.82c0.15-0.35,0.27-0.62,0.35-0.78
		l9.02-20.75h2.5V277.28z"/>
	<path class="st1" d="M136.36,277.28v-2.05c-1.89,1.69-3.94,2.54-6.15,2.54c-2.19,0-3.92-0.61-5.21-1.82
		c-1.29-1.22-1.93-2.97-1.93-5.27c0-2.27,0.73-3.99,2.19-5.17c1.46-1.17,3.27-1.76,5.43-1.76c1.94,0,3.83,0.49,5.66,1.48v-1.76
		c0-3.42-1.53-5.12-4.59-5.12c-1.97,0-4.05,0.75-6.23,2.25l-0.82-2.46c2.4-1.53,4.85-2.3,7.34-2.3c0.85,0,1.64,0.1,2.38,0.31
		c0.74,0.21,1.47,0.56,2.19,1.07c0.72,0.51,1.3,1.26,1.74,2.25c0.44,1,0.66,2.21,0.66,3.63v14.19H136.36z M130.49,275.27
		c2.16,0,4.11-1.08,5.86-3.24v-4.06c-1.72-1.15-3.51-1.72-5.37-1.72c-1.5,0-2.75,0.38-3.75,1.13c-1,0.75-1.5,1.85-1.5,3.3
		c0,1.39,0.42,2.51,1.25,3.34C127.82,274.85,128.99,275.27,130.49,275.27z"/>
	<path class="st1" d="M161.82,277.28h-3.16l-6.72-13.28l-3.48,3.73v9.55h-2.87v-28.21l2.87-1.39v16.65l7.42-8h3.32l-5.25,5.58
		L161.82,277.28z"/>
	<path class="st1" d="M172.97,277.77c-2.73,0-4.93-1.07-6.6-3.2c-1.67-2.13-2.5-4.73-2.5-7.79c0-3.42,0.83-6.09,2.5-8.04
		c1.67-1.94,3.87-2.91,6.6-2.91c2.4,0,4.39,0.85,5.94,2.56c1.56,1.71,2.34,4.23,2.34,7.56c0,0.74-0.03,1.41-0.08,2.01H166.9
		c0.25,2.19,0.9,3.92,1.97,5.21c1.07,1.29,2.47,1.93,4.22,1.93c1.67,0,3.24-0.55,4.71-1.64l1.56,1.93
		C177.45,276.98,175.32,277.77,172.97,277.77z M166.82,265.39h11.52c-0.03-2.54-0.58-4.34-1.66-5.39c-1.08-1.05-2.32-1.58-3.71-1.58
		c-1.75,0-3.18,0.59-4.31,1.76C167.54,261.35,166.93,263.09,166.82,265.39z"/>
	<path class="st1" d="M202.32,277.77c-2.76,0-5.17-1.22-7.22-3.65l2.01-1.76c1.61,1.91,3.43,2.87,5.45,2.87
		c1.2,0,2.19-0.27,2.95-0.8c0.77-0.53,1.15-1.28,1.15-2.23c0-0.6-0.14-1.14-0.41-1.62c-0.27-0.48-0.7-0.92-1.29-1.31
		c-0.59-0.4-1.11-0.7-1.58-0.92c-0.47-0.22-1.11-0.49-1.93-0.82c-0.98-0.41-1.79-0.78-2.42-1.11c-0.63-0.33-1.27-0.74-1.93-1.23
		c-0.66-0.49-1.14-1.07-1.46-1.74c-0.31-0.67-0.47-1.43-0.47-2.28c0-1.58,0.63-2.87,1.89-3.85c1.26-0.98,2.88-1.48,4.88-1.48
		c2.76,0,5.03,1.07,6.81,3.2l-1.89,1.6c-1.5-1.5-3.17-2.25-5-2.25c-1.2,0-2.17,0.25-2.89,0.74c-0.72,0.49-1.09,1.16-1.09,2.01
		c0,0.41,0.1,0.79,0.29,1.15c0.19,0.36,0.41,0.65,0.66,0.88c0.25,0.23,0.63,0.49,1.15,0.78c0.52,0.29,0.93,0.49,1.23,0.62
		s0.79,0.32,1.48,0.59c0.82,0.33,1.46,0.59,1.93,0.8c0.46,0.21,1.05,0.52,1.74,0.94c0.7,0.42,1.23,0.85,1.6,1.27
		c0.37,0.42,0.7,0.97,0.98,1.64c0.29,0.67,0.43,1.41,0.43,2.23c0,1.75-0.64,3.14-1.91,4.18
		C206.2,277.25,204.48,277.77,202.32,277.77z"/>
	<path class="st1" d="M223.07,277.77c-2.73,0-4.93-1.07-6.6-3.2c-1.67-2.13-2.5-4.73-2.5-7.79c0-3.42,0.83-6.09,2.5-8.04
		c1.67-1.94,3.87-2.91,6.6-2.91c2.4,0,4.39,0.85,5.94,2.56c1.56,1.71,2.34,4.23,2.34,7.56c0,0.74-0.03,1.41-0.08,2.01H217
		c0.25,2.19,0.9,3.92,1.97,5.21c1.07,1.29,2.47,1.93,4.22,1.93c1.67,0,3.24-0.55,4.71-1.64l1.56,1.93
		C227.55,276.98,225.42,277.77,223.07,277.77z M216.92,265.39h11.52c-0.03-2.54-0.58-4.34-1.66-5.39c-1.08-1.05-2.32-1.58-3.71-1.58
		c-1.75,0-3.18,0.59-4.31,1.76C217.64,261.35,217.03,263.09,216.92,265.39z"/>
	<path class="st1" d="M250.01,277.28v-12.79c0-2.1-0.44-3.64-1.31-4.61c-0.88-0.97-2.06-1.46-3.57-1.46c-3.44,0-5.17,2-5.17,5.99
		v12.87h-2.87v-20.95h2.87v2.3c1.28-1.86,3.09-2.79,5.41-2.79c2.57,0,4.46,0.78,5.68,2.34c1.22,1.56,1.82,4.06,1.82,7.5v11.6H250.01
		z"/>
	<path class="st1" d="M265.96,277.77c-2.76,0-5.17-1.22-7.22-3.65l2.01-1.76c1.61,1.91,3.43,2.87,5.45,2.87
		c1.2,0,2.19-0.27,2.95-0.8c0.77-0.53,1.15-1.28,1.15-2.23c0-0.6-0.14-1.14-0.41-1.62c-0.27-0.48-0.7-0.92-1.29-1.31
		c-0.59-0.4-1.11-0.7-1.58-0.92c-0.47-0.22-1.11-0.49-1.93-0.82c-0.98-0.41-1.79-0.78-2.42-1.11c-0.63-0.33-1.27-0.74-1.93-1.23
		c-0.66-0.49-1.14-1.07-1.46-1.74c-0.31-0.67-0.47-1.43-0.47-2.28c0-1.58,0.63-2.87,1.89-3.85c1.26-0.98,2.88-1.48,4.88-1.48
		c2.76,0,5.03,1.07,6.81,3.2l-1.89,1.6c-1.5-1.5-3.17-2.25-5-2.25c-1.2,0-2.17,0.25-2.89,0.74c-0.72,0.49-1.09,1.16-1.09,2.01
		c0,0.41,0.1,0.79,0.29,1.15c0.19,0.36,0.41,0.65,0.66,0.88c0.25,0.23,0.63,0.49,1.15,0.78c0.52,0.29,0.93,0.49,1.23,0.62
		s0.79,0.32,1.48,0.59c0.82,0.33,1.46,0.59,1.93,0.8c0.46,0.21,1.05,0.52,1.74,0.94c0.7,0.42,1.23,0.85,1.6,1.27
		c0.37,0.42,0.7,0.97,0.98,1.64c0.29,0.67,0.43,1.41,0.43,2.23c0,1.75-0.64,3.14-1.91,4.18
		C269.83,277.25,268.11,277.77,265.96,277.77z"/>
	<path class="st1" d="M286.7,277.77c-2.73,0-4.93-1.07-6.6-3.2c-1.67-2.13-2.5-4.73-2.5-7.79c0-3.42,0.83-6.09,2.5-8.04
		c1.67-1.94,3.87-2.91,6.6-2.91c2.4,0,4.39,0.85,5.94,2.56c1.56,1.71,2.34,4.23,2.34,7.56c0,0.74-0.03,1.41-0.08,2.01h-14.27
		c0.25,2.19,0.9,3.92,1.97,5.21c1.07,1.29,2.47,1.93,4.22,1.93c1.67,0,3.24-0.55,4.71-1.64l1.56,1.93
		C291.18,276.98,289.05,277.77,286.7,277.77z M280.55,265.39h11.52c-0.03-2.54-0.58-4.34-1.66-5.39c-1.08-1.05-2.32-1.58-3.71-1.58
		c-1.75,0-3.18,0.59-4.31,1.76C281.28,261.35,280.66,263.09,280.55,265.39z"/>
	<path class="st1" d="M317.7,277.77c-2.73,0-4.91-0.96-6.54-2.89c-1.63-1.93-2.44-4.61-2.44-8.06c0-3.42,0.82-6.1,2.46-8.06
		c1.64-1.95,3.81-2.93,6.52-2.93c2.73,0,4.91,0.96,6.54,2.89c1.63,1.93,2.44,4.61,2.44,8.06c0,3.42-0.82,6.1-2.46,8.06
		C322.58,276.79,320.4,277.77,317.7,277.77z M317.7,275.19c1.89,0,3.35-0.74,4.41-2.23c1.05-1.49,1.58-3.55,1.58-6.17
		s-0.51-4.67-1.54-6.15s-2.51-2.21-4.45-2.21c-1.94,0-3.42,0.72-4.45,2.15s-1.54,3.52-1.54,6.25c0,2.62,0.51,4.67,1.54,6.15
		C314.27,274.45,315.76,275.19,317.7,275.19z"/>
	<path class="st1" d="M336.39,258.91v18.37h-2.87v-18.37h-3.36v-2.58h3.36v-3.57c0-1.58,0.42-2.76,1.25-3.53
		c0.83-0.77,1.87-1.15,3.1-1.15c1.17,0,2.36,0.33,3.57,0.98v2.5c-1.04-0.55-2.04-0.82-2.99-0.82c-0.47,0-0.85,0.07-1.15,0.21
		s-0.51,0.34-0.64,0.61c-0.12,0.27-0.2,0.52-0.23,0.74c-0.03,0.22-0.04,0.52-0.04,0.9v3.12h5.04v2.58H336.39z"/>
	<path class="st1" d="M60.86,326.97c-2.76,0-5.17-1.22-7.22-3.65l2.01-1.76c1.61,1.91,3.43,2.87,5.45,2.87c1.2,0,2.19-0.27,2.95-0.8
		c0.77-0.53,1.15-1.28,1.15-2.23c0-0.6-0.14-1.14-0.41-1.62c-0.27-0.48-0.7-0.92-1.29-1.31c-0.59-0.4-1.11-0.7-1.58-0.92
		c-0.47-0.22-1.11-0.49-1.93-0.82c-0.98-0.41-1.79-0.78-2.42-1.11c-0.63-0.33-1.27-0.74-1.93-1.23c-0.66-0.49-1.14-1.07-1.46-1.74
		c-0.31-0.67-0.47-1.43-0.47-2.28c0-1.58,0.63-2.87,1.89-3.85c1.26-0.98,2.88-1.48,4.88-1.48c2.76,0,5.03,1.07,6.81,3.2l-1.89,1.6
		c-1.5-1.5-3.17-2.25-5-2.25c-1.2,0-2.17,0.25-2.89,0.74c-0.72,0.49-1.09,1.16-1.09,2.01c0,0.41,0.1,0.79,0.29,1.15
		c0.19,0.36,0.41,0.65,0.66,0.88c0.25,0.23,0.63,0.49,1.15,0.78c0.52,0.29,0.93,0.49,1.23,0.62s0.79,0.32,1.48,0.59
		c0.82,0.33,1.46,0.59,1.93,0.8c0.46,0.21,1.05,0.52,1.74,0.94c0.7,0.42,1.23,0.85,1.6,1.27s0.7,0.97,0.98,1.64
		c0.29,0.67,0.43,1.42,0.43,2.23c0,1.75-0.64,3.14-1.91,4.18C64.73,326.45,63.01,326.97,60.86,326.97z"/>
	<path class="st1" d="M81.48,326.97c-2.73,0-4.91-0.96-6.54-2.89c-1.63-1.93-2.44-4.61-2.44-8.06c0-3.42,0.82-6.1,2.46-8.06
		c1.64-1.95,3.81-2.93,6.52-2.93c2.73,0,4.91,0.96,6.54,2.89c1.63,1.93,2.44,4.61,2.44,8.06c0,3.42-0.82,6.1-2.46,8.06
		S84.18,326.97,81.48,326.97z M81.48,324.39c1.89,0,3.35-0.74,4.41-2.23c1.05-1.49,1.58-3.55,1.58-6.17s-0.51-4.67-1.54-6.15
		s-2.51-2.21-4.45-2.21c-1.94,0-3.42,0.72-4.45,2.15s-1.54,3.52-1.54,6.25c0,2.62,0.51,4.67,1.54,6.15
		C78.05,323.65,79.54,324.39,81.48,324.39z"/>
	<path class="st1" d="M109.11,326.48v-2.01c-0.71,0.93-1.47,1.58-2.28,1.95c-0.81,0.37-1.78,0.55-2.93,0.55
		c-2.71,0-4.67-0.76-5.88-2.3c-1.22-1.53-1.82-4.02-1.82-7.46v-11.68h2.87v12.79c0,2.08,0.44,3.61,1.31,4.59
		c0.87,0.98,2.05,1.48,3.53,1.48c3.47,0,5.21-2,5.21-5.99v-12.87h2.87v20.95H109.11z"/>
	<path class="st1" d="M132.28,326.48v-12.79c0-2.1-0.44-3.64-1.31-4.61c-0.88-0.97-2.06-1.46-3.57-1.46c-3.44,0-5.17,2-5.17,5.99
		v12.87h-2.87v-20.95h2.87v2.3c1.28-1.86,3.09-2.79,5.41-2.79c2.57,0,4.46,0.78,5.68,2.34c1.22,1.56,1.82,4.06,1.82,7.5v11.6H132.28
		z"/>
	<path class="st1" d="M149.54,326.97c-2.68,0-4.79-0.99-6.33-2.97c-1.54-1.98-2.32-4.65-2.32-8.02c0-3.42,0.77-6.09,2.32-8.04
		c1.54-1.94,3.66-2.91,6.33-2.91c2.08,0,3.94,0.66,5.58,1.97v-8.69l2.87-1.44v29.6h-2.87v-1.8
		C153.58,326.2,151.72,326.97,149.54,326.97z M149.87,324.39c1.07,0,2.06-0.29,2.99-0.86c0.93-0.57,1.68-1.38,2.25-2.42v-10.46
		c-1.26-2.02-3.01-3.03-5.25-3.03c-1.91,0-3.39,0.72-4.43,2.17c-1.04,1.45-1.56,3.51-1.56,6.19c0,2.41,0.55,4.41,1.64,6.01
		C146.61,323.59,148.06,324.39,149.87,324.39z"/>
	<path class="st1" d="M171.27,326.97c-2.76,0-5.17-1.22-7.22-3.65l2.01-1.76c1.61,1.91,3.43,2.87,5.45,2.87
		c1.2,0,2.19-0.27,2.95-0.8c0.77-0.53,1.15-1.28,1.15-2.23c0-0.6-0.14-1.14-0.41-1.62c-0.27-0.48-0.7-0.92-1.29-1.31
		c-0.59-0.4-1.11-0.7-1.58-0.92c-0.47-0.22-1.11-0.49-1.93-0.82c-0.98-0.41-1.79-0.78-2.42-1.11c-0.63-0.33-1.27-0.74-1.93-1.23
		c-0.66-0.49-1.14-1.07-1.46-1.74c-0.31-0.67-0.47-1.43-0.47-2.28c0-1.58,0.63-2.87,1.89-3.85c1.26-0.98,2.88-1.48,4.88-1.48
		c2.76,0,5.03,1.07,6.81,3.2l-1.89,1.6c-1.5-1.5-3.17-2.25-5-2.25c-1.2,0-2.17,0.25-2.89,0.74c-0.72,0.49-1.09,1.16-1.09,2.01
		c0,0.41,0.1,0.79,0.29,1.15c0.19,0.36,0.41,0.65,0.66,0.88c0.25,0.23,0.63,0.49,1.15,0.78c0.52,0.29,0.93,0.49,1.23,0.62
		s0.79,0.32,1.48,0.59c0.82,0.33,1.46,0.59,1.93,0.8c0.46,0.21,1.05,0.52,1.74,0.94c0.7,0.42,1.23,0.85,1.6,1.27s0.7,0.97,0.98,1.64
		c0.29,0.67,0.43,1.42,0.43,2.23c0,1.75-0.64,3.14-1.91,4.18C175.14,326.45,173.43,326.97,171.27,326.97z"/>
	<path class="st1" d="M190.09,331.81l16.11-34.52h2.79l-16.11,34.52H190.09z"/>
	<path class="st1" d="M247.65,326.48v-12.83c0-4.02-1.52-6.03-4.55-6.03c-1.5,0-2.69,0.58-3.55,1.74c-0.86,1.16-1.29,2.59-1.29,4.28
		v12.83h-2.87v-12.83c0-4.02-1.52-6.03-4.55-6.03c-1.56,0-2.75,0.53-3.59,1.58c-0.83,1.05-1.25,2.43-1.25,4.12v13.16h-2.87v-20.95
		H226v2.05c1.45-1.69,3.35-2.54,5.7-2.54c1.12,0,2.2,0.29,3.24,0.86c1.04,0.57,1.84,1.35,2.42,2.34c0.6-0.93,1.43-1.69,2.48-2.3
		c1.05-0.6,2.22-0.9,3.51-0.9c2.08,0,3.79,0.68,5.15,2.05c1.35,1.37,2.03,3.18,2.03,5.45v13.94H247.65z"/>
	<path class="st1" d="M269.75,326.48v-2.05c-1.89,1.7-3.94,2.54-6.15,2.54c-2.19,0-3.92-0.61-5.21-1.83
		c-1.29-1.21-1.93-2.97-1.93-5.27c0-2.27,0.73-3.99,2.19-5.17c1.46-1.18,3.27-1.76,5.43-1.76c1.94,0,3.83,0.49,5.66,1.48v-1.76
		c0-3.42-1.53-5.12-4.59-5.12c-1.97,0-4.05,0.75-6.23,2.25l-0.82-2.46c2.4-1.53,4.85-2.3,7.34-2.3c0.85,0,1.64,0.1,2.38,0.31
		c0.74,0.21,1.47,0.56,2.19,1.07c0.72,0.51,1.3,1.26,1.74,2.25c0.44,1,0.66,2.21,0.66,3.63v14.19H269.75z M263.88,324.47
		c2.16,0,4.11-1.08,5.86-3.24v-4.06c-1.72-1.15-3.51-1.72-5.37-1.72c-1.5,0-2.75,0.38-3.75,1.13c-1,0.75-1.5,1.85-1.5,3.3
		c0,1.39,0.42,2.51,1.25,3.34C261.21,324.05,262.38,324.47,263.88,324.47z"/>
	<path class="st1" d="M284.22,326.97c-2.76,0-4.14-1.6-4.14-4.8v-14.06h-3.57v-2.58h3.57v-7.22l2.87-1.44v8.65h5.33v2.58h-5.33
		v12.83c0,1.07,0.15,1.89,0.45,2.46c0.3,0.57,0.9,0.86,1.8,0.86c0.9,0,1.95-0.41,3.16-1.23l-0.33,2.99
		C286.86,326.65,285.59,326.97,284.22,326.97z"/>
	<path class="st1" d="M301.36,326.97c-2.73,0-4.93-1.07-6.6-3.2c-1.67-2.13-2.5-4.73-2.5-7.79c0-3.42,0.83-6.09,2.5-8.04
		c1.67-1.94,3.87-2.91,6.6-2.91c2.4,0,4.39,0.85,5.94,2.56c1.56,1.71,2.34,4.23,2.34,7.56c0,0.74-0.03,1.41-0.08,2.01h-14.27
		c0.25,2.19,0.9,3.92,1.97,5.21c1.07,1.29,2.47,1.93,4.22,1.93c1.67,0,3.24-0.55,4.71-1.64l1.56,1.93
		C305.84,326.18,303.71,326.97,301.36,326.97z M295.21,314.59h11.52c-0.03-2.54-0.58-4.34-1.66-5.39c-1.08-1.05-2.32-1.58-3.71-1.58
		c-1.75,0-3.18,0.59-4.31,1.76C295.93,310.56,295.32,312.29,295.21,314.59z"/>
	<path class="st1" d="M315.38,326.48v-20.95h2.87v2.95c1.07-2.3,2.83-3.44,5.29-3.44c1.17,0,2.16,0.29,2.95,0.86l-0.45,2.79
		c-0.85-0.52-1.75-0.78-2.71-0.78c-1.29,0-2.45,0.54-3.51,1.62c-1.05,1.08-1.58,2.78-1.58,5.1v11.85H315.38z"/>
	<path class="st1" d="M333.63,300.69c-0.36,0.36-0.81,0.53-1.35,0.53c-0.55,0-1-0.18-1.35-0.53c-0.36-0.35-0.53-0.81-0.53-1.35
		c0-0.55,0.18-1.01,0.55-1.39c0.37-0.38,0.81-0.57,1.33-0.57c0.55,0,1,0.19,1.35,0.57c0.35,0.38,0.53,0.85,0.53,1.39
		C334.16,299.88,333.98,300.33,333.63,300.69z M330.84,326.48v-20.95h2.87v20.95H330.84z"/>
	<path class="st1" d="M353.18,326.48v-2.05c-1.89,1.7-3.94,2.54-6.15,2.54c-2.19,0-3.92-0.61-5.21-1.83
		c-1.29-1.21-1.93-2.97-1.93-5.27c0-2.27,0.73-3.99,2.19-5.17c1.46-1.18,3.27-1.76,5.43-1.76c1.94,0,3.83,0.49,5.66,1.48v-1.76
		c0-3.42-1.53-5.12-4.59-5.12c-1.97,0-4.05,0.75-6.23,2.25l-0.82-2.46c2.4-1.53,4.85-2.3,7.34-2.3c0.85,0,1.64,0.1,2.38,0.31
		c0.74,0.21,1.47,0.56,2.19,1.07c0.72,0.51,1.3,1.26,1.74,2.25c0.44,1,0.66,2.21,0.66,3.63v14.19H353.18z M347.32,324.47
		c2.16,0,4.11-1.08,5.86-3.24v-4.06c-1.72-1.15-3.51-1.72-5.37-1.72c-1.5,0-2.75,0.38-3.75,1.13c-1,0.75-1.5,1.85-1.5,3.3
		c0,1.39,0.42,2.51,1.25,3.34C344.65,324.05,345.82,324.47,347.32,324.47z"/>
	<path class="st1" d="M362.61,326.48v-28.21l2.87-1.39v29.6H362.61z"/>
	<path class="st1" d="M378.97,326.97c-2.76,0-5.17-1.22-7.22-3.65l2.01-1.76c1.61,1.91,3.43,2.87,5.45,2.87
		c1.2,0,2.19-0.27,2.95-0.8c0.77-0.53,1.15-1.28,1.15-2.23c0-0.6-0.14-1.14-0.41-1.62c-0.27-0.48-0.7-0.92-1.29-1.31
		c-0.59-0.4-1.11-0.7-1.58-0.92c-0.47-0.22-1.11-0.49-1.93-0.82c-0.98-0.41-1.79-0.78-2.42-1.11c-0.63-0.33-1.27-0.74-1.93-1.23
		c-0.66-0.49-1.14-1.07-1.46-1.74c-0.31-0.67-0.47-1.43-0.47-2.28c0-1.58,0.63-2.87,1.89-3.85c1.26-0.98,2.88-1.48,4.88-1.48
		c2.76,0,5.03,1.07,6.81,3.2l-1.89,1.6c-1.5-1.5-3.17-2.25-5-2.25c-1.2,0-2.17,0.25-2.89,0.74c-0.72,0.49-1.09,1.16-1.09,2.01
		c0,0.41,0.1,0.79,0.29,1.15c0.19,0.36,0.41,0.65,0.66,0.88c0.25,0.23,0.63,0.49,1.15,0.78c0.52,0.29,0.93,0.49,1.23,0.62
		s0.79,0.32,1.48,0.59c0.82,0.33,1.46,0.59,1.93,0.8c0.46,0.21,1.05,0.52,1.74,0.94c0.7,0.42,1.23,0.85,1.6,1.27s0.7,0.97,0.98,1.64
		c0.29,0.67,0.43,1.42,0.43,2.23c0,1.75-0.64,3.14-1.91,4.18C382.85,326.45,381.13,326.97,378.97,326.97z"/>
</g>
<g>
	<path class="st1" d="M571.82,251.58h7.62c2.32,0,4.36,0.41,6.11,1.23c1.75,0.82,3.1,1.93,4.06,3.32s1.67,2.91,2.13,4.55
		c0.46,1.64,0.7,3.39,0.7,5.25c0,1.39-0.12,2.74-0.37,4.04c-0.25,1.3-0.68,2.58-1.31,3.85s-1.42,2.38-2.38,3.32
		c-0.96,0.94-2.21,1.7-3.77,2.28c-1.56,0.57-3.33,0.86-5.33,0.86h-7.46V251.58z M579.49,277.69c1.83,0,3.42-0.34,4.78-1.02
		c1.35-0.68,2.39-1.61,3.12-2.79c0.72-1.17,1.25-2.42,1.58-3.73c0.33-1.31,0.49-2.72,0.49-4.22c0-3.28-0.79-6.06-2.38-8.34
		c-1.59-2.28-3.96-3.42-7.13-3.42h-5.25v23.53H579.49z"/>
	<path class="st1" d="M606.55,280.77c-2.73,0-4.91-0.96-6.54-2.89c-1.63-1.93-2.44-4.61-2.44-8.06c0-3.42,0.82-6.1,2.46-8.06
		c1.64-1.95,3.81-2.93,6.52-2.93c2.73,0,4.91,0.96,6.54,2.89c1.63,1.93,2.44,4.61,2.44,8.06c0,3.42-0.82,6.1-2.46,8.06
		C611.43,279.79,609.26,280.77,606.55,280.77z M606.55,278.19c1.89,0,3.35-0.74,4.41-2.23c1.05-1.49,1.58-3.55,1.58-6.17
		s-0.51-4.67-1.54-6.15s-2.51-2.21-4.45-2.21c-1.94,0-3.42,0.72-4.45,2.15c-1.02,1.44-1.54,3.52-1.54,6.25
		c0,2.62,0.51,4.67,1.54,6.15C603.13,277.45,604.61,278.19,606.55,278.19z"/>
	<path class="st1" d="M636.81,280.77c-2.76,0-5.17-1.22-7.22-3.65l2.01-1.76c1.61,1.91,3.43,2.87,5.45,2.87
		c1.2,0,2.19-0.27,2.95-0.8c0.77-0.53,1.15-1.28,1.15-2.23c0-0.6-0.14-1.14-0.41-1.62c-0.27-0.48-0.7-0.92-1.29-1.31
		c-0.59-0.4-1.11-0.7-1.58-0.92c-0.47-0.22-1.11-0.49-1.93-0.82c-0.98-0.41-1.79-0.78-2.42-1.11c-0.63-0.33-1.27-0.74-1.93-1.23
		c-0.66-0.49-1.14-1.07-1.46-1.74c-0.31-0.67-0.47-1.43-0.47-2.28c0-1.58,0.63-2.87,1.89-3.85c1.26-0.98,2.88-1.48,4.88-1.48
		c2.76,0,5.03,1.07,6.8,3.2l-1.88,1.6c-1.5-1.5-3.17-2.25-5-2.25c-1.2,0-2.17,0.25-2.89,0.74c-0.72,0.49-1.09,1.16-1.09,2.01
		c0,0.41,0.09,0.79,0.29,1.15c0.19,0.36,0.41,0.65,0.66,0.88c0.25,0.23,0.63,0.49,1.15,0.78c0.52,0.29,0.93,0.49,1.23,0.62
		s0.79,0.32,1.48,0.59c0.82,0.33,1.46,0.59,1.93,0.8s1.05,0.52,1.74,0.94c0.7,0.42,1.23,0.85,1.6,1.27c0.37,0.42,0.7,0.97,0.98,1.64
		c0.29,0.67,0.43,1.41,0.43,2.23c0,1.75-0.63,3.14-1.91,4.18C640.68,280.25,638.97,280.77,636.81,280.77z"/>
	<path class="st1" d="M655.13,280.77c-2.76,0-4.14-1.6-4.14-4.8v-14.06h-3.57v-2.58h3.57v-7.22l2.87-1.44v8.65h5.33v2.58h-5.33
		v12.83c0,1.07,0.15,1.89,0.45,2.46c0.3,0.57,0.9,0.86,1.8,0.86s1.95-0.41,3.16-1.23l-0.33,2.99
		C657.77,280.45,656.5,280.77,655.13,280.77z"/>
	<path class="st1" d="M677.72,280.28v-2.01c-0.71,0.93-1.47,1.58-2.28,1.95s-1.78,0.55-2.93,0.55c-2.71,0-4.67-0.77-5.88-2.3
		c-1.22-1.53-1.82-4.02-1.82-7.46v-11.69h2.87v12.79c0,2.08,0.44,3.61,1.31,4.59s2.05,1.48,3.53,1.48c3.47,0,5.21-2,5.21-5.99
		v-12.87h2.87v20.95H677.72z"/>
	<path class="st1" d="M691.75,261.91v18.37h-2.87v-18.37h-3.36v-2.58h3.36v-3.57c0-1.58,0.42-2.76,1.25-3.53
		c0.83-0.77,1.87-1.15,3.1-1.15c1.18,0,2.36,0.33,3.57,0.98v2.5c-1.04-0.55-2.04-0.82-2.99-0.82c-0.46,0-0.85,0.07-1.15,0.21
		s-0.51,0.34-0.63,0.61c-0.12,0.27-0.2,0.52-0.23,0.74c-0.03,0.22-0.04,0.52-0.04,0.9v3.12h5.04v2.58H691.75z"/>
	<path class="st1" d="M705.89,261.91v18.37h-2.87v-18.37h-3.36v-2.58h3.36v-3.57c0-1.58,0.42-2.76,1.25-3.53
		c0.83-0.77,1.87-1.15,3.1-1.15c1.17,0,2.36,0.33,3.57,0.98v2.5c-1.04-0.55-2.04-0.82-2.99-0.82c-0.46,0-0.85,0.07-1.15,0.21
		s-0.51,0.34-0.63,0.61c-0.12,0.27-0.2,0.52-0.23,0.74c-0.03,0.22-0.04,0.52-0.04,0.9v3.12h5.04v2.58H705.89z"/>
	<path class="st1" d="M728.2,280.28l-5.17-20.95h2.87l3.44,15.09l0.49,2.3c0.08-0.3,0.19-0.72,0.33-1.25
		c0.14-0.53,0.23-0.88,0.29-1.05l4.39-15.09h1.97l4.39,15.09c0.08,0.3,0.21,0.74,0.37,1.31c0.16,0.57,0.27,0.97,0.33,1.19
		c0.05-0.3,0.14-0.73,0.27-1.29c0.12-0.56,0.21-0.96,0.27-1.21l3.32-15.09h2.87l-5.17,20.95h-2.58l-4.18-12.67
		c-0.03-0.08-0.15-0.46-0.37-1.15c-0.22-0.68-0.4-1.24-0.53-1.68c-0.14,0.41-0.42,1.34-0.86,2.79l-4.1,12.71H728.2z"/>
	<path class="st1" d="M756.77,254.49c-0.36,0.36-0.81,0.53-1.35,0.53s-1-0.18-1.35-0.53c-0.36-0.35-0.53-0.81-0.53-1.35
		c0-0.55,0.18-1.01,0.55-1.39c0.37-0.38,0.81-0.57,1.33-0.57c0.55,0,1,0.19,1.35,0.57c0.36,0.38,0.53,0.85,0.53,1.39
		C757.3,253.68,757.13,254.13,756.77,254.49z M753.98,280.28v-20.95h2.87v20.95H753.98z"/>
	<path class="st1" d="M769.52,280.77c-2.76,0-4.14-1.6-4.14-4.8v-14.06h-3.57v-2.58h3.57v-7.22l2.87-1.44v8.65h5.33v2.58h-5.33
		v12.83c0,1.07,0.15,1.89,0.45,2.46c0.3,0.57,0.9,0.86,1.8,0.86c0.9,0,1.96-0.41,3.16-1.23l-0.33,2.99
		C772.16,280.45,770.89,280.77,769.52,280.77z"/>
	<path class="st1" d="M779.4,280.28v-28.25l2.87-1.35v10.99c1.26-1.89,3.06-2.83,5.41-2.83c2.57,0,4.46,0.78,5.68,2.34
		c1.22,1.56,1.82,4.06,1.82,7.5v11.6h-2.87v-12.79c0-2.1-0.44-3.64-1.31-4.61s-2.06-1.46-3.57-1.46c-3.44,0-5.17,2-5.17,5.99v12.87
		H779.4z"/>
	<path class="st1" d="M528.86,329.97c-2.76,0-5.17-1.22-7.22-3.65l2.01-1.76c1.61,1.91,3.43,2.87,5.45,2.87
		c1.2,0,2.19-0.27,2.95-0.8c0.77-0.53,1.15-1.28,1.15-2.23c0-0.6-0.14-1.14-0.41-1.62c-0.27-0.48-0.7-0.92-1.29-1.31
		c-0.59-0.4-1.11-0.7-1.58-0.92c-0.47-0.22-1.11-0.49-1.93-0.82c-0.98-0.41-1.79-0.78-2.42-1.11c-0.63-0.33-1.27-0.74-1.93-1.23
		s-1.14-1.07-1.46-1.74c-0.31-0.67-0.47-1.43-0.47-2.28c0-1.58,0.63-2.87,1.89-3.85c1.26-0.98,2.88-1.48,4.88-1.48
		c2.76,0,5.03,1.07,6.81,3.2l-1.89,1.6c-1.5-1.5-3.17-2.25-5-2.25c-1.2,0-2.17,0.25-2.89,0.74c-0.72,0.49-1.09,1.16-1.09,2.01
		c0,0.41,0.09,0.79,0.29,1.15c0.19,0.36,0.41,0.65,0.66,0.88s0.63,0.49,1.15,0.78c0.52,0.29,0.93,0.49,1.23,0.62
		s0.79,0.32,1.48,0.59c0.82,0.33,1.46,0.59,1.93,0.8c0.46,0.21,1.05,0.52,1.74,0.94c0.7,0.42,1.23,0.85,1.6,1.27s0.7,0.97,0.98,1.64
		c0.29,0.67,0.43,1.42,0.43,2.23c0,1.75-0.64,3.14-1.91,4.18C532.73,329.45,531.01,329.97,528.86,329.97z"/>
	<path class="st1" d="M549.48,329.97c-2.73,0-4.91-0.96-6.54-2.89s-2.44-4.61-2.44-8.06c0-3.42,0.82-6.1,2.46-8.06
		c1.64-1.95,3.81-2.93,6.52-2.93c2.73,0,4.91,0.96,6.54,2.89c1.63,1.93,2.44,4.61,2.44,8.06c0,3.42-0.82,6.1-2.46,8.06
		S552.18,329.97,549.48,329.97z M549.48,327.39c1.89,0,3.35-0.74,4.41-2.23c1.05-1.49,1.58-3.55,1.58-6.17s-0.51-4.67-1.54-6.15
		s-2.51-2.21-4.45-2.21c-1.94,0-3.42,0.72-4.45,2.15c-1.02,1.44-1.54,3.52-1.54,6.25c0,2.62,0.51,4.67,1.54,6.15
		C546.05,326.65,547.54,327.39,549.48,327.39z"/>
	<path class="st1" d="M577.11,329.48v-2.01c-0.71,0.93-1.47,1.58-2.28,1.95s-1.78,0.55-2.93,0.55c-2.71,0-4.67-0.76-5.88-2.3
		c-1.22-1.53-1.82-4.02-1.82-7.46v-11.68h2.87v12.79c0,2.08,0.44,3.61,1.31,4.59c0.88,0.98,2.05,1.48,3.53,1.48
		c3.47,0,5.21-2,5.21-5.99v-12.87h2.87v20.95H577.11z"/>
	<path class="st1" d="M600.28,329.48v-12.79c0-2.1-0.44-3.64-1.31-4.61c-0.88-0.97-2.06-1.46-3.57-1.46c-3.44,0-5.17,2-5.17,5.99
		v12.87h-2.87v-20.95h2.87v2.3c1.28-1.86,3.09-2.79,5.41-2.79c2.57,0,4.46,0.78,5.68,2.34c1.21,1.56,1.82,4.06,1.82,7.5v11.6H600.28
		z"/>
	<path class="st1" d="M617.54,329.97c-2.68,0-4.79-0.99-6.33-2.97c-1.54-1.98-2.32-4.65-2.32-8.02c0-3.42,0.77-6.09,2.32-8.04
		c1.54-1.94,3.66-2.91,6.33-2.91c2.08,0,3.94,0.66,5.58,1.97v-8.69l2.87-1.44v29.6h-2.87v-1.8
		C621.58,329.2,619.72,329.97,617.54,329.97z M617.87,327.39c1.07,0,2.06-0.29,2.99-0.86c0.93-0.57,1.68-1.38,2.25-2.42v-10.46
		c-1.26-2.02-3.01-3.03-5.25-3.03c-1.91,0-3.39,0.72-4.43,2.17c-1.04,1.45-1.56,3.51-1.56,6.19c0,2.41,0.55,4.41,1.64,6.01
		C614.61,326.59,616.06,327.39,617.87,327.39z"/>
	<path class="st1" d="M639.27,329.97c-2.76,0-5.17-1.22-7.22-3.65l2.01-1.76c1.61,1.91,3.43,2.87,5.45,2.87
		c1.2,0,2.19-0.27,2.95-0.8c0.77-0.53,1.15-1.28,1.15-2.23c0-0.6-0.14-1.14-0.41-1.62c-0.27-0.48-0.7-0.92-1.29-1.31
		c-0.59-0.4-1.11-0.7-1.58-0.92c-0.47-0.22-1.11-0.49-1.93-0.82c-0.98-0.41-1.79-0.78-2.42-1.11c-0.63-0.33-1.27-0.74-1.93-1.23
		s-1.14-1.07-1.46-1.74c-0.31-0.67-0.47-1.43-0.47-2.28c0-1.58,0.63-2.87,1.89-3.85c1.26-0.98,2.88-1.48,4.88-1.48
		c2.76,0,5.03,1.07,6.81,3.2l-1.89,1.6c-1.5-1.5-3.17-2.25-5-2.25c-1.2,0-2.17,0.25-2.89,0.74c-0.72,0.49-1.09,1.16-1.09,2.01
		c0,0.41,0.09,0.79,0.29,1.15c0.19,0.36,0.41,0.65,0.66,0.88s0.63,0.49,1.15,0.78c0.52,0.29,0.93,0.49,1.23,0.62
		s0.79,0.32,1.48,0.59c0.82,0.33,1.46,0.59,1.93,0.8c0.46,0.21,1.05,0.52,1.74,0.94c0.7,0.42,1.23,0.85,1.6,1.27s0.7,0.97,0.98,1.64
		c0.29,0.67,0.43,1.42,0.43,2.23c0,1.75-0.64,3.14-1.91,4.18C643.14,329.45,641.43,329.97,639.27,329.97z"/>
	<path class="st1" d="M658.09,334.81l16.11-34.52h2.79l-16.11,34.52H658.09z"/>
	<path class="st1" d="M715.65,329.48v-12.83c0-4.02-1.52-6.03-4.55-6.03c-1.5,0-2.69,0.58-3.55,1.74c-0.86,1.16-1.29,2.59-1.29,4.28
		v12.83h-2.87v-12.83c0-4.02-1.52-6.03-4.55-6.03c-1.56,0-2.75,0.53-3.59,1.58c-0.83,1.05-1.25,2.43-1.25,4.12v13.16h-2.87v-20.95
		H694v2.05c1.45-1.69,3.35-2.54,5.7-2.54c1.12,0,2.2,0.29,3.24,0.86c1.04,0.57,1.84,1.35,2.42,2.34c0.6-0.93,1.43-1.69,2.48-2.3
		c1.05-0.6,2.22-0.9,3.5-0.9c2.08,0,3.79,0.68,5.15,2.05c1.35,1.37,2.03,3.18,2.03,5.45v13.94H715.65z"/>
	<path class="st1" d="M737.75,329.48v-2.05c-1.89,1.7-3.94,2.54-6.15,2.54c-2.19,0-3.92-0.61-5.21-1.83
		c-1.29-1.21-1.93-2.97-1.93-5.27c0-2.27,0.73-3.99,2.19-5.17s3.27-1.76,5.43-1.76c1.94,0,3.83,0.49,5.66,1.48v-1.76
		c0-3.42-1.53-5.12-4.59-5.12c-1.97,0-4.05,0.75-6.23,2.25l-0.82-2.46c2.41-1.53,4.85-2.3,7.34-2.3c0.85,0,1.64,0.1,2.38,0.31
		c0.74,0.21,1.47,0.56,2.19,1.07c0.72,0.51,1.3,1.26,1.74,2.25c0.44,1,0.66,2.21,0.66,3.63v14.19H737.75z M731.88,327.47
		c2.16,0,4.11-1.08,5.86-3.24v-4.06c-1.72-1.15-3.51-1.72-5.37-1.72c-1.5,0-2.75,0.38-3.75,1.13s-1.5,1.85-1.5,3.3
		c0,1.39,0.42,2.51,1.25,3.34S730.38,327.47,731.88,327.47z"/>
	<path class="st1" d="M752.22,329.97c-2.76,0-4.14-1.6-4.14-4.8v-14.06h-3.57v-2.58h3.57v-7.22l2.87-1.44v8.65h5.33v2.58h-5.33
		v12.83c0,1.07,0.15,1.89,0.45,2.46s0.9,0.86,1.8,0.86s1.95-0.41,3.16-1.23l-0.33,2.99C754.86,329.65,753.59,329.97,752.22,329.97z"
		/>
	<path class="st1" d="M769.36,329.97c-2.73,0-4.93-1.07-6.6-3.2c-1.67-2.13-2.5-4.73-2.5-7.79c0-3.42,0.83-6.09,2.5-8.04
		c1.67-1.94,3.87-2.91,6.6-2.91c2.41,0,4.39,0.85,5.94,2.56c1.56,1.71,2.34,4.23,2.34,7.56c0,0.74-0.03,1.41-0.08,2.01h-14.27
		c0.25,2.19,0.9,3.92,1.97,5.21c1.07,1.29,2.47,1.93,4.22,1.93c1.67,0,3.24-0.55,4.71-1.64l1.56,1.93
		C773.84,329.18,771.71,329.97,769.36,329.97z M763.21,317.59h11.52c-0.03-2.54-0.58-4.34-1.66-5.39c-1.08-1.05-2.32-1.58-3.71-1.58
		c-1.75,0-3.18,0.59-4.31,1.76C763.93,313.56,763.32,315.29,763.21,317.59z"/>
	<path class="st1" d="M783.38,329.48v-20.95h2.87v2.95c1.07-2.3,2.83-3.44,5.29-3.44c1.18,0,2.16,0.29,2.95,0.86l-0.45,2.79
		c-0.85-0.52-1.75-0.78-2.71-0.78c-1.29,0-2.45,0.54-3.5,1.62c-1.05,1.08-1.58,2.78-1.58,5.1v11.85H783.38z"/>
	<path class="st1" d="M801.62,303.69c-0.36,0.36-0.81,0.53-1.35,0.53c-0.55,0-1-0.18-1.35-0.53c-0.36-0.35-0.53-0.81-0.53-1.35
		c0-0.55,0.18-1.01,0.55-1.39c0.37-0.38,0.81-0.57,1.33-0.57c0.55,0,1,0.19,1.35,0.57c0.36,0.38,0.53,0.85,0.53,1.39
		C802.16,302.88,801.98,303.33,801.62,303.69z M798.84,329.48v-20.95h2.87v20.95H798.84z"/>
	<path class="st1" d="M821.18,329.48v-2.05c-1.89,1.7-3.94,2.54-6.15,2.54c-2.19,0-3.92-0.61-5.21-1.83
		c-1.29-1.21-1.93-2.97-1.93-5.27c0-2.27,0.73-3.99,2.19-5.17c1.46-1.18,3.27-1.76,5.43-1.76c1.94,0,3.83,0.49,5.66,1.48v-1.76
		c0-3.42-1.53-5.12-4.59-5.12c-1.97,0-4.04,0.75-6.23,2.25l-0.82-2.46c2.4-1.53,4.85-2.3,7.34-2.3c0.85,0,1.64,0.1,2.38,0.31
		c0.74,0.21,1.47,0.56,2.19,1.07c0.72,0.51,1.3,1.26,1.74,2.25c0.44,1,0.66,2.21,0.66,3.63v14.19H821.18z M815.32,327.47
		c2.16,0,4.11-1.08,5.86-3.24v-4.06c-1.72-1.15-3.51-1.72-5.37-1.72c-1.5,0-2.75,0.38-3.75,1.13c-1,0.75-1.5,1.85-1.5,3.3
		c0,1.39,0.42,2.51,1.25,3.34C812.65,327.05,813.82,327.47,815.32,327.47z"/>
	<path class="st1" d="M830.61,329.48v-28.21l2.87-1.39v29.6H830.61z"/>
	<path class="st1" d="M846.97,329.97c-2.76,0-5.17-1.22-7.22-3.65l2.01-1.76c1.61,1.91,3.43,2.87,5.45,2.87
		c1.2,0,2.19-0.27,2.95-0.8c0.76-0.53,1.15-1.28,1.15-2.23c0-0.6-0.14-1.14-0.41-1.62c-0.27-0.48-0.7-0.92-1.29-1.31
		c-0.59-0.4-1.11-0.7-1.58-0.92c-0.46-0.22-1.11-0.49-1.93-0.82c-0.98-0.41-1.79-0.78-2.42-1.11c-0.63-0.33-1.27-0.74-1.93-1.23
		c-0.66-0.49-1.14-1.07-1.46-1.74s-0.47-1.43-0.47-2.28c0-1.58,0.63-2.87,1.89-3.85c1.26-0.98,2.88-1.48,4.88-1.48
		c2.76,0,5.03,1.07,6.81,3.2l-1.89,1.6c-1.5-1.5-3.17-2.25-5-2.25c-1.2,0-2.17,0.25-2.89,0.74c-0.72,0.49-1.09,1.16-1.09,2.01
		c0,0.41,0.1,0.79,0.29,1.15c0.19,0.36,0.41,0.65,0.66,0.88s0.63,0.49,1.15,0.78c0.52,0.29,0.93,0.49,1.23,0.62s0.79,0.32,1.48,0.59
		c0.82,0.33,1.46,0.59,1.93,0.8s1.04,0.52,1.74,0.94s1.23,0.85,1.6,1.27s0.7,0.97,0.98,1.64c0.29,0.67,0.43,1.42,0.43,2.23
		c0,1.75-0.63,3.14-1.91,4.18S849.13,329.97,846.97,329.97z"/>
</g>
<g>
	<path class="st1" d="M96.32,40.8l-7.2-33.6h5.14l4.18,20.69c0.42,2.14,0.66,3.44,0.72,3.89c0.03-0.42,0.32-1.71,0.86-3.89
		L105.3,7.2h4.18l5.42,20.64c0.48,1.79,0.77,3.07,0.86,3.84c0.1-0.83,0.32-2.11,0.67-3.84l4.22-20.64h5.04l-7.25,33.6h-4.51
		l-5.81-21.79c-0.48-1.73-0.75-2.94-0.82-3.65c-0.06,0.7-0.34,1.92-0.82,3.65l-5.66,21.79H96.32z"/>
	<path class="st1" d="M131.46,40.8V8.45l4.99-2.3v12.48c1.54-1.95,3.65-2.93,6.34-2.93c5.89,0,8.83,3.49,8.83,10.46V40.8h-4.99
		V26.16c0-1.95-0.45-3.4-1.34-4.34c-0.9-0.94-2.08-1.42-3.55-1.42c-3.52,0-5.28,1.89-5.28,5.66V40.8H131.46z"/>
	<path class="st1" d="M161.08,50.11l3.79-9.74l-9.17-24.1h4.94l6.05,16.03c0.29,0.74,0.51,1.46,0.67,2.16
		c0.16-0.7,0.38-1.42,0.67-2.16l6.1-16.03h4.99l-12.96,33.84H161.08z"/>
	<path class="st1" d="M206.34,41.38c-2.5,0-4.46-0.9-5.9-2.69v9.46l-4.99,2.3V16.27h4.99v1.97c1.54-1.7,3.5-2.54,5.9-2.54
		c3.1,0,5.56,1.14,7.37,3.43c1.81,2.29,2.71,5.43,2.71,9.43c0,3.97-0.92,7.1-2.76,9.38C211.82,40.23,209.38,41.38,206.34,41.38z
		 M205.62,36.67c1.89,0,3.33-0.7,4.32-2.09c0.99-1.39,1.49-3.4,1.49-6.02c0-2.43-0.51-4.4-1.54-5.9c-1.02-1.5-2.45-2.26-4.27-2.26
		c-2.3,0-4.03,0.93-5.18,2.78v10.66C201.84,35.73,203.57,36.67,205.62,36.67z"/>
	<path class="st1" d="M222.66,40.8V8.5l4.99-2.35V40.8H222.66z"/>
	<path class="st1" d="M249.11,40.8v-2.11c-1.73,1.79-3.97,2.69-6.72,2.69c-2.59,0-4.7-0.71-6.31-2.14
		c-1.62-1.42-2.42-3.45-2.42-6.07c0-2.66,0.91-4.67,2.74-6.05c1.82-1.38,4.05-2.06,6.67-2.06c2.4,0,4.42,0.48,6.05,1.44v-1.34
		c0-1.82-0.42-3.12-1.25-3.89c-0.83-0.77-2.16-1.15-3.98-1.15c-2.69,0-5.02,0.74-7.01,2.21l-1.49-4.08c2.46-1.7,5.52-2.54,9.17-2.54
		c1.22,0,2.3,0.1,3.26,0.31c0.96,0.21,1.94,0.61,2.93,1.2c0.99,0.59,1.77,1.54,2.33,2.86c0.56,1.31,0.84,2.93,0.84,4.85V40.8H249.11
		z M243.3,36.96c2.3,0,4.24-0.88,5.81-2.64v-3.74c-1.5-0.8-3.25-1.2-5.23-1.2c-1.6,0-2.9,0.31-3.91,0.94
		c-1.01,0.62-1.51,1.58-1.51,2.86c0,1.18,0.42,2.11,1.25,2.78C240.53,36.62,241.73,36.96,243.3,36.96z"/>
	<path class="st1" d="M270.13,41.38c-3.3,0-5.9-1.14-7.82-3.41c-1.92-2.27-2.88-5.41-2.88-9.41c0-4,0.96-7.14,2.88-9.43
		c1.92-2.29,4.53-3.43,7.82-3.43c4.77,0,7.86,2.11,9.26,6.34l-4.75,1.63c-0.8-2.11-2.24-3.17-4.32-3.17c-1.86,0-3.29,0.71-4.3,2.14
		c-1.01,1.42-1.51,3.4-1.51,5.93c0,2.5,0.5,4.46,1.49,5.88c0.99,1.42,2.37,2.14,4.13,2.14c2.37,0,3.9-1.2,4.61-3.6l4.75,1.49
		C278.18,39.07,275.06,41.38,270.13,41.38z"/>
	<path class="st1" d="M295.43,41.38c-3.42,0-6.14-1.14-8.14-3.43c-2-2.29-3-5.43-3-9.43c0-4,1.01-7.14,3.02-9.41
		c2.02-2.27,4.72-3.41,8.11-3.41c3.07,0,5.6,0.98,7.58,2.93c1.98,1.95,2.98,4.8,2.98,8.54c0,1.38-0.06,2.45-0.19,3.22h-16.51
		c0.03,1.95,0.66,3.54,1.9,4.75c1.23,1.22,2.66,1.82,4.3,1.82c2.11,0,3.81-0.83,5.09-2.5l3.26,3.36
		C301.84,40.19,299.04,41.38,295.43,41.38z M289.28,26.35h11.71c-0.03-2.11-0.59-3.68-1.68-4.7c-1.09-1.02-2.38-1.54-3.89-1.54
		c-1.7,0-3.11,0.5-4.25,1.51C290.04,22.63,289.41,24.21,289.28,26.35z"/>
	<path class="st1" d="M337.28,40.8v-2.11c-1.73,1.79-3.97,2.69-6.72,2.69c-2.59,0-4.7-0.71-6.31-2.14
		c-1.62-1.42-2.42-3.45-2.42-6.07c0-2.66,0.91-4.67,2.74-6.05c1.82-1.38,4.05-2.06,6.67-2.06c2.4,0,4.42,0.48,6.05,1.44v-1.34
		c0-1.82-0.42-3.12-1.25-3.89c-0.83-0.77-2.16-1.15-3.98-1.15c-2.69,0-5.02,0.74-7.01,2.21l-1.49-4.08c2.46-1.7,5.52-2.54,9.17-2.54
		c1.22,0,2.3,0.1,3.26,0.31c0.96,0.21,1.94,0.61,2.93,1.2c0.99,0.59,1.77,1.54,2.33,2.86c0.56,1.31,0.84,2.93,0.84,4.85V40.8H337.28
		z M331.47,36.96c2.3,0,4.24-0.88,5.81-2.64v-3.74c-1.5-0.8-3.25-1.2-5.23-1.2c-1.6,0-2.9,0.31-3.91,0.94
		c-1.01,0.62-1.51,1.58-1.51,2.86c0,1.18,0.42,2.11,1.25,2.78C328.71,36.62,329.91,36.96,331.47,36.96z"/>
	<path class="st1" d="M389.12,40.8V26.11c0-3.81-1.5-5.71-4.51-5.71c-1.41,0-2.58,0.52-3.5,1.56c-0.93,1.04-1.39,2.5-1.39,4.39V40.8
		h-4.99V26.11c0-3.81-1.5-5.71-4.51-5.71c-1.41,0-2.58,0.52-3.5,1.56c-0.93,1.04-1.39,2.5-1.39,4.39V40.8h-4.99V16.27h4.99v2.26
		c1.31-1.89,3.38-2.83,6.19-2.83c3.04,0,5.22,1.17,6.53,3.5c1.5-2.34,3.92-3.5,7.25-3.5c2.66,0,4.79,0.77,6.41,2.3
		c1.62,1.54,2.42,3.86,2.42,6.96V40.8H389.12z"/>
	<path class="st1" d="M415.09,40.8v-2.11c-1.73,1.79-3.97,2.69-6.72,2.69c-2.59,0-4.7-0.71-6.31-2.14
		c-1.62-1.42-2.42-3.45-2.42-6.07c0-2.66,0.91-4.67,2.74-6.05c1.82-1.38,4.05-2.06,6.67-2.06c2.4,0,4.42,0.48,6.05,1.44v-1.34
		c0-1.82-0.42-3.12-1.25-3.89c-0.83-0.77-2.16-1.15-3.98-1.15c-2.69,0-5.02,0.74-7.01,2.21l-1.49-4.08c2.46-1.7,5.52-2.54,9.17-2.54
		c1.22,0,2.3,0.1,3.26,0.31c0.96,0.21,1.94,0.61,2.93,1.2c0.99,0.59,1.77,1.54,2.33,2.86c0.56,1.31,0.84,2.93,0.84,4.85V40.8H415.09
		z M409.28,36.96c2.3,0,4.24-0.88,5.81-2.64v-3.74c-1.5-0.8-3.25-1.2-5.23-1.2c-1.6,0-2.9,0.31-3.91,0.94
		c-1.01,0.62-1.51,1.58-1.51,2.86c0,1.18,0.42,2.11,1.25,2.78C406.51,36.62,407.71,36.96,409.28,36.96z"/>
	<path class="st1" d="M436.11,41.38c-3.3,0-5.9-1.14-7.82-3.41c-1.92-2.27-2.88-5.41-2.88-9.41c0-4,0.96-7.14,2.88-9.43
		c1.92-2.29,4.53-3.43,7.82-3.43c4.77,0,7.86,2.11,9.26,6.34l-4.75,1.63c-0.8-2.11-2.24-3.17-4.32-3.17c-1.86,0-3.29,0.71-4.3,2.14
		c-1.01,1.42-1.51,3.4-1.51,5.93c0,2.5,0.5,4.46,1.49,5.88c0.99,1.42,2.37,2.14,4.13,2.14c2.37,0,3.9-1.2,4.61-3.6l4.75,1.49
		C444.16,39.07,441.04,41.38,436.11,41.38z"/>
	<path class="st1" d="M451.47,40.8V8.45l4.99-2.3v12.48c1.54-1.95,3.65-2.93,6.34-2.93c5.89,0,8.83,3.49,8.83,10.46V40.8h-4.99
		V26.16c0-1.95-0.45-3.4-1.34-4.34c-0.9-0.94-2.08-1.42-3.55-1.42c-3.52,0-5.28,1.89-5.28,5.66V40.8H451.47z"/>
	<path class="st1" d="M483.27,11.54c-0.59,0.59-1.3,0.89-2.14,0.89c-0.83,0-1.54-0.3-2.14-0.89c-0.59-0.59-0.89-1.3-0.89-2.14
		c0-0.83,0.3-1.54,0.89-2.14c0.59-0.59,1.3-0.89,2.14-0.89c0.83,0,1.54,0.3,2.14,0.89c0.59,0.59,0.89,1.3,0.89,2.14
		C484.16,10.24,483.86,10.95,483.27,11.54z M478.64,40.8V16.27h4.99V40.8H478.64z"/>
	<path class="st1" d="M506.05,40.8V26.16c0-1.95-0.45-3.4-1.34-4.34c-0.9-0.94-2.08-1.42-3.55-1.42c-3.52,0-5.28,1.89-5.28,5.66
		V40.8h-4.99V16.27h4.99v2.35c1.54-1.95,3.65-2.93,6.34-2.93c5.89,0,8.83,3.49,8.83,10.46V40.8H506.05z"/>
	<path class="st1" d="M527.94,41.38c-3.42,0-6.14-1.14-8.14-3.43c-2-2.29-3-5.43-3-9.43c0-4,1.01-7.14,3.02-9.41
		c2.02-2.27,4.72-3.41,8.11-3.41c3.07,0,5.6,0.98,7.58,2.93c1.98,1.95,2.98,4.8,2.98,8.54c0,1.38-0.06,2.45-0.19,3.22h-16.51
		c0.03,1.95,0.66,3.54,1.9,4.75c1.23,1.22,2.66,1.82,4.3,1.82c2.11,0,3.81-0.83,5.09-2.5l3.26,3.36
		C534.35,40.19,531.55,41.38,527.94,41.38z M521.79,26.35h11.71c-0.03-2.11-0.59-3.68-1.68-4.7c-1.09-1.02-2.38-1.54-3.89-1.54
		c-1.7,0-3.11,0.5-4.25,1.51C522.55,22.63,521.92,24.21,521.79,26.35z"/>
	<path class="st1" d="M560.45,11.54c-0.59,0.59-1.3,0.89-2.14,0.89s-1.54-0.3-2.14-0.89c-0.59-0.59-0.89-1.3-0.89-2.14
		c0-0.83,0.29-1.54,0.89-2.14c0.59-0.59,1.3-0.89,2.14-0.89s1.54,0.3,2.14,0.89c0.59,0.59,0.89,1.3,0.89,2.14
		C561.34,10.24,561.05,10.95,560.45,11.54z M555.82,40.8V16.27h4.99V40.8H555.82z"/>
	<path class="st1" d="M583.23,40.8V26.16c0-1.95-0.45-3.4-1.34-4.34c-0.9-0.94-2.08-1.42-3.55-1.42c-3.52,0-5.28,1.89-5.28,5.66
		V40.8h-4.99V16.27h4.99v2.35c1.54-1.95,3.65-2.93,6.34-2.93c5.89,0,8.83,3.49,8.83,10.46V40.8H583.23z"/>
	<path class="st1" d="M613.81,41.38c-3.65,0-5.47-2.03-5.47-6.1V20.59h-3.79v-4.32h3.79V8.54l4.99-2.4v10.13h5.81v4.32h-5.81v13.39
		c0,1.86,0.8,2.78,2.4,2.78c1.18,0,2.4-0.38,3.65-1.15l-0.62,4.66C617.28,41.01,615.63,41.38,613.81,41.38z"/>
	<path class="st1" d="M624.89,40.8V8.45l4.99-2.3v12.48c1.54-1.95,3.65-2.93,6.34-2.93c5.89,0,8.83,3.49,8.83,10.46V40.8h-4.99
		V26.16c0-1.95-0.45-3.4-1.34-4.34c-0.9-0.94-2.08-1.42-3.55-1.42c-3.52,0-5.28,1.89-5.28,5.66V40.8H624.89z"/>
	<path class="st1" d="M656.69,11.54c-0.59,0.59-1.3,0.89-2.14,0.89c-0.83,0-1.54-0.3-2.14-0.89c-0.59-0.59-0.89-1.3-0.89-2.14
		c0-0.83,0.3-1.54,0.89-2.14c0.59-0.59,1.3-0.89,2.14-0.89c0.83,0,1.54,0.3,2.14,0.89c0.59,0.59,0.89,1.3,0.89,2.14
		C657.58,10.24,657.28,10.95,656.69,11.54z M652.06,40.8V16.27h4.99V40.8H652.06z"/>
	<path class="st1" d="M671.88,41.38c-1.92,0-3.73-0.36-5.42-1.08c-1.7-0.72-2.98-1.69-3.84-2.9l3.55-3.02
		c1.76,1.66,3.63,2.5,5.62,2.5c2.88,0,4.32-0.88,4.32-2.64c0-0.61-0.27-1.17-0.82-1.68c-0.54-0.51-1.09-0.89-1.63-1.13
		c-0.54-0.24-1.42-0.6-2.64-1.08c-2.69-0.9-4.66-1.95-5.93-3.17c-1.26-1.22-1.9-2.78-1.9-4.7c0-2.11,0.81-3.77,2.42-4.97
		c1.62-1.2,3.66-1.8,6.12-1.8c3.68,0,6.54,1.23,8.59,3.7l-3.6,2.88c-1.31-1.38-2.98-2.06-4.99-2.06c-1.06,0-1.9,0.2-2.52,0.6
		c-0.62,0.4-0.94,0.95-0.94,1.66c0,0.74,0.38,1.34,1.13,1.8c0.75,0.46,1.96,1.02,3.62,1.66c2.78,0.93,4.82,2.02,6.12,3.26
		c1.3,1.25,1.94,2.93,1.94,5.04c0,2.3-0.82,4.07-2.47,5.3C676.98,40.76,674.73,41.38,671.88,41.38z"/>
	<path class="st1" d="M698.86,40.8V8.5l4.99-2.35V40.8H698.86z"/>
	<path class="st1" d="M729.48,37.97c-2.02,2.27-4.75,3.41-8.21,3.41s-6.18-1.14-8.18-3.41c-2-2.27-3-5.41-3-9.41c0-4,1-7.14,3-9.43
		c2-2.29,4.73-3.43,8.18-3.43s6.19,1.14,8.21,3.43c2.02,2.29,3.02,5.43,3.02,9.43C732.51,32.56,731.5,35.7,729.48,37.97z
		 M721.28,36.67c1.92,0,3.44-0.72,4.56-2.16s1.68-3.42,1.68-5.95c0-2.53-0.56-4.52-1.68-5.98c-1.12-1.46-2.64-2.18-4.56-2.18
		c-1.89,0-3.39,0.73-4.51,2.18c-1.12,1.46-1.68,3.45-1.68,5.98c0,2.5,0.56,4.47,1.68,5.93C717.88,35.94,719.39,36.67,721.28,36.67z"
		/>
	<path class="st1" d="M756.7,37.97c-2.02,2.27-4.75,3.41-8.21,3.41s-6.18-1.14-8.18-3.41c-2-2.27-3-5.41-3-9.41c0-4,1-7.14,3-9.43
		c2-2.29,4.73-3.43,8.18-3.43s6.19,1.14,8.21,3.43c2.02,2.29,3.02,5.43,3.02,9.43C759.72,32.56,758.71,35.7,756.7,37.97z
		 M748.49,36.67c1.92,0,3.44-0.72,4.56-2.16c1.12-1.44,1.68-3.42,1.68-5.95c0-2.53-0.56-4.52-1.68-5.98
		c-1.12-1.46-2.64-2.18-4.56-2.18c-1.89,0-3.39,0.73-4.51,2.18c-1.12,1.46-1.68,3.45-1.68,5.98c0,2.5,0.56,4.47,1.68,5.93
		C745.1,35.94,746.6,36.67,748.49,36.67z"/>
	<path class="st1" d="M776.62,41.38c-2.5,0-4.46-0.9-5.9-2.69v9.46l-4.99,2.3V16.27h4.99v1.97c1.54-1.7,3.5-2.54,5.9-2.54
		c3.1,0,5.56,1.14,7.37,3.43c1.81,2.29,2.71,5.43,2.71,9.43c0,3.97-0.92,7.1-2.76,9.38C782.1,40.23,779.66,41.38,776.62,41.38z
		 M775.9,36.67c1.89,0,3.33-0.7,4.32-2.09c0.99-1.39,1.49-3.4,1.49-6.02c0-2.43-0.51-4.4-1.54-5.9c-1.02-1.5-2.45-2.26-4.27-2.26
		c-2.3,0-4.03,0.93-5.18,2.78v10.66C772.12,35.73,773.85,36.67,775.9,36.67z"/>
	<path class="st1" d="M798.17,31.68v-0.96c0-1.7,0.29-3.17,0.86-4.42s1.27-2.24,2.09-2.98c0.82-0.74,1.62-1.42,2.42-2.06
		c0.8-0.64,1.49-1.38,2.06-2.23c0.58-0.85,0.86-1.82,0.86-2.9c0-1.44-0.46-2.6-1.39-3.48c-0.93-0.88-2.22-1.32-3.89-1.32
		c-1.95,0-3.46,0.57-4.54,1.7c-1.07,1.14-1.61,2.74-1.61,4.82h-4.99c0-3.46,1.02-6.19,3.07-8.21c2.05-2.02,4.74-3.02,8.06-3.02
		c3.23,0,5.75,0.89,7.56,2.66c1.81,1.78,2.71,4.06,2.71,6.84c0,1.44-0.29,2.72-0.86,3.84c-0.58,1.12-1.26,2.03-2.06,2.74
		c-0.8,0.7-1.61,1.41-2.42,2.11c-0.82,0.7-1.51,1.55-2.09,2.54c-0.58,0.99-0.86,2.13-0.86,3.41v0.91H798.17z M800.62,41.38
		c-1.02,0-1.88-0.34-2.57-1.03c-0.69-0.69-1.03-1.51-1.03-2.47c0-0.96,0.34-1.79,1.03-2.5c0.69-0.7,1.54-1.06,2.57-1.06
		c0.99,0,1.85,0.35,2.57,1.06c0.72,0.7,1.08,1.54,1.08,2.5c0,0.96-0.36,1.78-1.08,2.47C802.47,41.03,801.61,41.38,800.62,41.38z"/>
</g>
<g>
</g>
<g>
</g>
<g>
</g>
<g>
</g>
<g>
</g>
<g>
</g>
<g>
</g>
<g>
</g>
<g>
</g>
<g>
</g>
<g>
</g>
<g>
</g>
<g>
</g>
<g>
</g>
<g>
</g>
</svg>
